SplineFontDB: 3.2
FontName: michuhu_mono
FullName: michuhu_mono
FamilyName: michuhu_mono
Weight: Regular_mono
Copyright: Copyright (c) 2020, Matthew
UComments: "2020-7-9: Created with FontForge (http://fontforge.org)"
Version: 001.000
DefaultBaseFilename: michuhu
ItalicAngle: 0
UnderlinePosition: -102
UnderlineWidth: 51
Ascent: 819
Descent: 205
InvalidEm: 0
LayerCount: 2
Layer: 0 0 "Back" 1
Layer: 1 0 "Fore" 0
XUID: [1021 208 -1550797864 13806809]
StyleMap: 0x0000
FSType: 0
OS2Version: 0
OS2_WeightWidthSlopeOnly: 0
OS2_UseTypoMetrics: 1
CreationTime: 1594294544
ModificationTime: 1594645878
OS2TypoAscent: 0
OS2TypoAOffset: 1
OS2TypoDescent: 0
OS2TypoDOffset: 1
OS2TypoLinegap: 92
OS2WinAscent: 0
OS2WinAOffset: 1
OS2WinDescent: 0
OS2WinDOffset: 1
HheadAscent: 0
HheadAOffset: 1
HheadDescent: 0
HheadDOffset: 1
MarkAttachClasses: 1
DEI: 91125
Encoding: UnicodeBmp
UnicodeInterp: none
NameList: AGL For New Fonts
DisplaySize: -48
AntiAlias: 1
FitToEm: 0
WinInfo: 57330 14 6
BeginPrivate: 0
EndPrivate
BeginChars: 65536 70

StartChar: uniE000
Encoding: 57344 57344 0
Width: 800
VWidth: 0
Flags: HW
LayerCount: 2
Fore
SplineSet
458.228515625 807 m 1
 508.228515625 733 l 1
 279.228515625 610 368.228515625 197 491.228515625 66 c 1
 430.228515625 0 l 1
 270.228515625 152 212.228515625 696 458.228515625 807 c 1
EndSplineSet
Validated: 524321
EndChar

StartChar: uniE001
Encoding: 57345 57345 1
Width: 800
VWidth: 0
InSpiro: 1
Flags: HW
LayerCount: 2
Fore
SplineSet
429.682617188 369.6640625 m 1
 381.51953125 366.4140625 335.096679688 341.190429688 306.802734375 302.080078125 c 0
 288.3828125 276.618164062 277.657226562 245.4609375 277.638671875 214.03515625 c 0
 277.620117188 182.609375 288.592773438 151.084960938 309.067382812 127.245117188 c 0
 329.54296875 103.405273438 359.415039062 87.7626953125 390.715820312 84.9697265625 c 0
 422.017578125 82.177734375 454.060546875 92.2822265625 478.833984375 111.616210938 c 0
 496.609375 125.48828125 510.71484375 143.80859375 520.655273438 164.045898438 c 0
 530.596679688 184.284179688 536.461914062 206.372070312 539.389648438 228.728515625 c 0
 545.247070312 273.44140625 540.03515625 318.813476562 534.130859375 363.51953125 c 0
 525.729492188 427.122070312 516.904296875 490.681640625 506.482421875 553.984375 c 0
 493.592773438 632.274414062 475.11328125 709.774414062 448.114257812 784.383789062 c 1
 524.9140625 796.671875 l 1
 543.53125 698.204101562 564.934570312 600.278320312 583.282226562 501.759765625 c 0
 594.014648438 444.1328125 603.366210938 386.046875 605.321289062 327.461914062 c 0
 607.276367188 268.876953125 601.459960938 209.254882812 580.209960938 154.624023438 c 0
 562.869140625 110.041015625 534.784179688 69.0419921875 496.53125 40.318359375 c 0
 458.279296875 11.5947265625 409.76953125 -3.974609375 362.098632812 0 c 0
 323.682617188 3.203125 286.411132812 19.0185546875 257.4921875 44.5078125 c 0
 228.573242188 69.998046875 208.208984375 104.857421875 199.440429688 142.395507812 c 0
 190.670898438 179.934570312 193.37109375 219.915039062 206.041992188 256.322265625 c 0
 218.711914062 292.729492188 241.181640625 325.559570312 269.938476562 351.232421875 c 0
 311.151367188 388.025390625 365.287109375 409.938476562 420.466796875 412.671875 c 1
 429.682617188 369.6640625 l 1
  Spiro
    429.677 369.664 v
    306.797 302.08 o
    478.829 111.616 o
    534.125 363.52 o
    506.477 553.984 o
    448.109 784.384 v
    524.909 796.672 v
    583.277 501.76 o
    580.205 154.624 o
    362.093 0 o
    269.933 351.232 o
    420.461 412.672 v
    0 0 z
  EndSpiro
EndSplineSet
Validated: 524321
EndChar

StartChar: uniE002
Encoding: 57346 57346 2
Width: 800
VWidth: 0
InSpiro: 1
Flags: HW
LayerCount: 2
Fore
SplineSet
83.8125 254.975585938 m 1024
  Spiro
    83.8132 254.976 {
    0 0 z
  EndSpiro
535.396484375 794.624023438 m 1
 523.108398438 757.759765625 l 1
 503.359375 770.936523438 480.065429688 778.744140625 456.365234375 780.130859375 c 0
 432.6640625 781.518554688 408.618164062 776.48046875 387.467773438 765.698242188 c 0
 366.31640625 754.915039062 348.115234375 738.4140625 335.314453125 718.418945312 c 0
 322.514648438 698.423828125 315.150390625 674.986328125 314.211914062 651.263671875 c 0
 312.556640625 609.381835938 331.8203125 567.186523438 364.55078125 541.002929688 c 0
 397.280273438 514.818359375 442.674804688 505.287109375 483.171875 516.095703125 c 1
 486.244140625 0 l 1
 406.372070312 0 l 1
 452.452148438 452.608398438 l 1
 401.602539062 451.098632812 350.48828125 472.0234375 315.29296875 508.756835938 c 0
 280.098632812 545.490234375 261.377929688 597.453125 265.060546875 648.192382812 c 0
 267.265625 678.581054688 277.235351562 708.374023438 293.764648438 733.969726562 c 0
 310.293945312 759.564453125 333.34765625 780.908203125 360.138671875 795.419921875 c 0
 386.928710938 809.931640625 417.401367188 817.581054688 447.869140625 817.442382812 c 0
 478.336914062 817.303710938 508.73828125 809.37890625 535.396484375 794.624023438 c 1
  Spiro
    535.397 794.624 v
    523.109 757.76 v
    314.213 651.264 o
    483.173 516.096 v
    486.245 0 v
    406.373 0 v
    452.453 452.608 v
    265.061 648.192 o
    0 0 z
  EndSpiro
EndSplineSet
Validated: 524321
EndChar

StartChar: uniE003
Encoding: 57347 57347 3
Width: 800
VWidth: 0
InSpiro: 1
Flags: HW
LayerCount: 2
Fore
SplineSet
385.57421875 578.559570312 m 0
 426.755859375 581.043945312 468.484375 573.266601562 506.112304688 556.349609375 c 0
 543.740234375 539.432617188 577.189453125 513.490234375 603.467773438 481.686523438 c 0
 656.025390625 418.078125 678.8984375 331.670898438 668.198242188 249.856445312 c 0
 660.015625 187.293945312 632.42578125 127.073242188 588.805664062 81.4853515625 c 0
 545.185546875 35.8974609375 485.270507812 5.7529296875 422.438476562 0 c 0
 381.588867188 -3.740234375 339.879882812 2.6484375 301.936523438 18.234375 c 0
 263.993164062 33.8203125 229.899414062 58.4931640625 202.731445312 89.2255859375 c 0
 148.39453125 150.69140625 122.811523438 235.770507812 130.598632812 317.440429688 c 0
 136.883789062 383.364257812 164.676757812 447.444335938 210.248046875 495.494140625 c 0
 255.8203125 543.543945312 319.470703125 574.572265625 385.57421875 578.559570312 c 0
  Spiro
    668.196 249.856 o
    422.436 0 o
    130.596 317.44 o
    385.572 578.56 o
    0 0 z
  EndSpiro
379.430664062 507.904296875 m 0
 336.264648438 502.038085938 295.32421875 481.716796875 263.947265625 451.497070312 c 0
 232.571289062 421.27734375 210.720703125 381.465820312 201.25390625 338.944335938 c 0
 187.09375 275.333984375 201.336914062 205.553710938 240.774414062 153.674804688 c 0
 260.493164062 127.735351562 286.239257812 106.354492188 315.526367188 92.0732421875 c 0
 344.813476562 77.7919921875 377.58203125 70.68359375 410.150390625 71.6796875 c 0
 457.454101562 73.126953125 503.869140625 91.962890625 539.458007812 123.159179688 c 0
 575.045898438 154.35546875 599.806640625 197.459960938 609.830078125 243.711914062 c 0
 624.333007812 310.630859375 607.1484375 384.1796875 562.866210938 436.404296875 c 0
 540.724609375 462.517578125 512.161132812 483.206054688 480.296875 495.7265625 c 0
 448.431640625 508.24609375 413.354492188 512.513671875 379.430664062 507.904296875 c 0
  Spiro
    379.428 507.904 o
    201.252 338.944 o
    410.148 71.68 o
    609.828 243.712 o
    0 0 z
  EndSpiro
EndSplineSet
Validated: 524321
EndChar

StartChar: uniE004
Encoding: 57348 57348 4
Width: 800
VWidth: 0
Flags: HWO
LayerCount: 2
Fore
SplineSet
229.380859375 584 m 1
 275.380859375 571 l 1
 261.380859375 602 263.380859375 639 278.380859375 669 c 0
 293.380859375 699 322.380859375 721 355.380859375 728 c 0
 374.380859375 732 395.380859375 732 414.380859375 727 c 0
 433.380859375 722 451.380859375 712 466.380859375 700 c 0
 496.380859375 675 515.380859375 639 524.380859375 601 c 0
 533.380859375 563 532.380859375 522 526.380859375 483 c 0
 520.380859375 444 510.380859375 407 500.380859375 369 c 0
 484.380859375 309 468.380859375 248 463.380859375 186 c 0
 458.380859375 124 461.380859375 61 475.380859375 0 c 1
 521.380859375 0 l 1
 524.380859375 104 539.380859375 207 558.380859375 310 c 0
 577.380859375 412 600.380859375 516 579.380859375 618 c 0
 569.380859375 669 546.380859375 718 510.380859375 755 c 0
 474.380859375 792 423.380859375 815 371.380859375 814 c 0
 344.380859375 813 317.380859375 806 293.380859375 793 c 0
 269.380859375 780 249.380859375 761 235.380859375 738 c 0
 221.380859375 715 213.380859375 689 212.380859375 662 c 0
 211.380859375 635 217.380859375 608 229.380859375 584 c 1
EndSplineSet
EndChar

StartChar: uniE005
Encoding: 57349 57349 5
Width: 800
VWidth: 0
Flags: HW
LayerCount: 2
Fore
SplineSet
344.5 812 m 29
 341.5 0 l 25
 458.5 0 l 25
 406.5 812 l 25
 344.5 812 l 29
EndSplineSet
Validated: 524297
EndChar

StartChar: uniE006
Encoding: 57350 57350 6
Width: 800
VWidth: 0
Flags: HW
LayerCount: 2
Fore
SplineSet
570.125 584 m 1
 524.125 571 l 1
 538.125 602 537.125 639 522.125 669 c 0
 507.125 699 477.125 721 444.125 728 c 0
 425.125 732 405.125 732 386.125 727 c 0
 367.125 722 349.125 712 334.125 700 c 0
 304.125 675 284.125 639 275.125 601 c 0
 266.125 563 267.125 522 273.125 483 c 0
 279.125 444 290.125 407 300.125 369 c 0
 316.125 309 331.125 248 336.125 186 c 0
 341.125 124 338.125 61 324.125 0 c 1
 278.125 0 l 1
 275.125 104 260.125 207 241.125 310 c 0
 222.125 412 199.125 516 220.125 618 c 0
 230.125 669 254.125 718 290.125 755 c 0
 326.125 792 377.125 815 429.125 814 c 0
 456.125 813 482.125 806 506.125 793 c 0
 530.125 780 550.125 761 564.125 738 c 0
 578.125 715 587.125 689 588.125 662 c 0
 589.125 635 582.125 608 570.125 584 c 1
EndSplineSet
Validated: 524321
EndChar

StartChar: uniE007
Encoding: 57351 57351 7
Width: 800
VWidth: 0
Flags: HW
LayerCount: 2
Fore
SplineSet
803.5 309 m 5
 730.5 358 l 5
 607.5 129 193.5 219 62.5 342 c 5
 -3.5 281 l 5
 148.5 121 692.5 63 803.5 309 c 5
EndSplineSet
Validated: 524329
EndChar

StartChar: uniE008
Encoding: 57352 57352 8
Width: 800
VWidth: 0
InSpiro: 1
Flags: HW
LayerCount: 2
Fore
SplineSet
3.7119140625 67.583984375 m 1
 102.016601562 21.50390625 l 1
 131.770507812 82.130859375 176.265625 135.59765625 231.040039062 175.103515625 c 0
 301.501953125 225.924804688 390.95703125 252.978515625 476.799804688 239.616210938 c 0
 528.400390625 231.583984375 577.7890625 208.991210938 616.9296875 174.420898438 c 0
 656.0703125 139.849609375 684.704101562 93.5126953125 697.984375 43.0078125 c 1
 796.288085938 98.3037109375 l 1
 741.5546875 190.924804688 650.618164062 261.3125 547.456054688 291.83984375 c 0
 435.263671875 325.040039062 310.763671875 311.06640625 206.463867188 258.047851562 c 0
 122.693359375 215.46484375 51.5966796875 148.442382812 3.7119140625 67.583984375 c 1
  Spiro
    3.71228 67.584 v
    102.016 21.504 v
    231.04 175.104 o
    476.8 239.616 o
    697.984 43.008 v
    796.288 98.304 v
    547.456 291.84 o
    206.464 258.048 o
    0 0 z
  EndSpiro
3.7119140625 95.232421875 m 1048
  Spiro
    3.71228 95.232 {
    0 0 z
  EndSpiro
EndSplineSet
Validated: 524329
EndChar

StartChar: uniE009
Encoding: 57353 57353 9
Width: 800
VWidth: 0
InSpiro: 1
Flags: HW
LayerCount: 2
Fore
SplineSet
305.233398438 17.408203125 m 1
 283.729492188 69.6318359375 l 1
 360.3203125 111.814453125 418.473632812 185.5234375 443.473632812 269.311523438 c 0
 460.7265625 327.134765625 462.806640625 389.036132812 452.577148438 448.50390625 c 0
 442.348632812 507.971679688 420.233398438 565.12109375 390.225585938 617.471679688 c 0
 365.3125 660.935546875 334.897460938 701.2265625 300.114257812 737.280273438 c 1
 361.553710938 802.81640625 l 1
 398.737304688 744.934570312 431.303710938 684.028320312 457.809570312 620.543945312 c 0
 482.161132812 562.219726562 501.411132812 501.471679688 510.60546875 438.940429688 c 0
 519.799804688 376.41015625 518.432617188 311.8671875 501.841796875 250.879882812 c 0
 474.233398438 149.390625 401.236328125 60.37109375 305.233398438 17.408203125 c 1
  Spiro
    305.231 17.408 v
    283.726 69.632 v
    443.47 269.312 o
    390.222 617.472 o
    300.111 737.28 v
    361.55 802.816 v
    457.806 620.544 o
    501.838 250.88 o
    0 0 z
  EndSpiro
EndSplineSet
Validated: 524321
EndChar

StartChar: uniE00A
Encoding: 57354 57354 10
Width: 800
VWidth: 0
InSpiro: 1
Flags: HW
LayerCount: 2
Fore
SplineSet
466.817382812 764.927734375 m 1
 522.11328125 724.9921875 l 1
 424.131835938 637.149414062 335.229492188 535.28515625 282.497070312 414.719726562 c 0
 255.517578125 353.033203125 239.830078125 284.385742188 251.34375 218.048828125 c 0
 257.100585938 184.880859375 269.815429688 152.733398438 289.806640625 125.646484375 c 0
 309.797851562 98.560546875 337.150390625 76.74609375 368.513671875 64.51171875 c 0
 409.912109375 48.3623046875 458.04296875 49.7978515625 497.953125 69.3388671875 c 0
 537.86328125 88.8798828125 568.666992188 126.122070312 580.481445312 168.959960938 c 0
 589.732421875 202.504882812 587.51953125 239.086914062 574.375 271.305664062 c 0
 561.229492188 303.524414062 537.237304688 331.19921875 507.23046875 348.819335938 c 0
 477.223632812 366.439453125 441.377929688 373.908203125 406.829101562 369.754882812 c 0
 372.280273438 365.6015625 339.228515625 349.849609375 314.241210938 325.631835938 c 1
 304.000976562 384 l 1
 341.850585938 407.29296875 387.241210938 418.10546875 431.526367188 414.375976562 c 0
 475.811523438 410.646484375 518.755859375 392.39453125 552.170898438 363.092773438 c 0
 585.584960938 333.791015625 609.291015625 293.59375 618.741210938 250.16796875 c 0
 628.192382812 206.7421875 623.333984375 160.318359375 605.057617188 119.807617188 c 0
 579.442382812 63.03125 527.051757812 19.083984375 466.71875 3.6025390625 c 0
 406.38671875 -11.8798828125 339.810546875 1.3466796875 288.641601562 36.8642578125 c 0
 235.159179688 73.9873046875 199.298828125 133.548828125 184.833007812 197.025390625 c 0
 170.3671875 260.501953125 175.85546875 327.451171875 193.409179688 390.143554688 c 0
 235.831054688 541.651367188 340.4296875 671.225585938 466.817382812 764.927734375 c 1
  Spiro
    466.82 764.928 v
    522.116 724.992 v
    282.5 414.72 o
    368.516 64.512 o
    580.484 168.96 o
    314.244 325.632 v
    304.004 384 v
    605.06 119.808 o
    288.644 36.864 o
    193.412 390.144 o
    0 0 z
  EndSpiro
EndSplineSet
Validated: 524321
EndChar

StartChar: uniE00B
Encoding: 57355 57355 11
Width: 800
VWidth: 0
InSpiro: 1
Flags: HW
LayerCount: 2
Fore
SplineSet
89.728515625 58.3681640625 m 1
 356.9921875 780.288085938 l 1
 710.271484375 30.7197265625 l 1
 587.392578125 15.3603515625 l 1
 360.064453125 642.047851562 l 1
 234.111328125 0 l 1
 89.728515625 58.3681640625 l 1
  Spiro
    89.718 58.368 v
    356.982 780.288 v
    710.262 30.72 v
    587.382 15.36 v
    360.054 642.048 v
    234.102 0 v
    0 0 z
  EndSpiro
EndSplineSet
Validated: 524289
EndChar

StartChar: uniE00C
Encoding: 57356 57356 12
Width: 800
VWidth: 0
InSpiro: 1
Flags: HW
LayerCount: 2
Fore
SplineSet
134.271484375 801.791992188 m 1
 665.728515625 814.080078125 l 1
 654.837890625 621.727539062 634.32421875 429.920898438 604.287109375 239.616210938 c 0
 591.634765625 159.454101562 577.294921875 79.55859375 561.279296875 0 c 1
 493.6953125 18.431640625 l 1
 529.8515625 164.83203125 555.5390625 313.81640625 570.49609375 463.872070312 c 0
 579.552734375 554.729492188 584.677734375 645.979492188 585.85546875 737.280273438 c 1
 158.84765625 712.704101562 l 1
 134.271484375 801.791992188 l 1
  Spiro
    134.275 801.792 v
    665.731 814.08 v
    604.291 239.616 o
    561.283 0 v
    493.699 18.432 v
    570.499 463.872 o
    585.859 737.28 v
    158.851 712.704 v
    0 0 z
  EndSpiro
EndSplineSet
Validated: 524289
EndChar

StartChar: uniE00D
Encoding: 57357 57357 13
Width: 800
VWidth: 0
InSpiro: 1
Flags: HW
LayerCount: 2
Fore
SplineSet
83.0390625 648.192382812 m 1
 115.602539062 664.627929688 152.060546875 673.1875 188.537109375 673.30078125 c 0
 225.014648438 673.413085938 261.223632812 665.021484375 295.006835938 651.263671875 c 0
 351.405273438 628.296875 400.536132812 589.93359375 457.064453125 567.290039062 c 0
 485.329101562 555.967773438 515.869140625 548.997070312 546.204101562 551.6171875 c 0
 576.5390625 554.23828125 606.479492188 567.133789062 626.783203125 589.82421875 c 0
 640.815429688 605.506835938 649.965820312 625.620117188 651.926757812 646.573242188 c 0
 653.888671875 667.526367188 648.572265625 689.1171875 636.952148438 706.663085938 c 0
 625.33203125 724.208984375 607.538085938 737.524414062 587.502929688 743.96484375 c 0
 567.46875 750.404296875 545.403320312 749.984375 525.407226562 743.423828125 c 0
 493.310546875 732.89453125 467.569335938 706.958007812 453.111328125 676.428710938 c 0
 438.653320312 645.899414062 434.584960938 611.271484375 436.319335938 577.536132812 c 0
 441.413085938 478.439453125 486.3125 385.447265625 499.27734375 287.0703125 c 0
 512.2421875 188.692382812 495.978515625 85.44921875 445.53515625 0 c 1
 384.094726562 0 l 1
 409.026367188 50.3017578125 424.219726562 105.338867188 429.225585938 161.255859375 c 0
 434.23046875 217.172851562 428.84765625 273.643554688 417.88671875 328.704101562 c 0
 404.380859375 396.549804688 382.357421875 462.70703125 373.201171875 531.275390625 c 0
 368.623046875 565.55859375 367.483398438 600.4921875 372.67578125 634.688476562 c 0
 377.868164062 668.884765625 389.5625 702.3046875 408.670898438 731.135742188 c 0
 426.40625 757.89453125 450.512695312 780.52734375 478.786132812 795.733398438 c 0
 507.05859375 810.939453125 539.418945312 818.633789062 571.487304688 817.15234375 c 0
 602.66015625 815.711914062 633.482421875 805.537109375 658.96875 787.530273438 c 0
 684.455078125 769.522460938 704.416015625 743.66015625 714.80859375 714.235351562 c 0
 725.201171875 684.810546875 725.860351562 652.03515625 716.61328125 622.23046875 c 0
 707.366210938 592.42578125 688.342773438 565.892578125 663.646484375 546.81640625 c 0
 637.680664062 526.758789062 605.836914062 514.982421875 573.3046875 510.716796875 c 0
 540.772460938 506.452148438 507.62109375 509.411132812 475.458984375 515.904296875 c 0
 411.135742188 528.891601562 349.991210938 554.737304688 285.791015625 568.3203125 c 0
 216.883789062 582.8984375 144.286132812 582.649414062 76.89453125 562.17578125 c 1
 83.0390625 648.192382812 l 1
  Spiro
    83.0522 648.192 v
    295.02 651.264 o
    626.796 589.824 o
    525.42 743.424 o
    436.332 577.536 o
    445.548 0 v
    384.108 0 v
    417.9 328.704 o
    408.684 731.136 o
    571.5 817.152 o
    663.66 546.816 o
    285.804 568.32 o
    76.9082 562.176 v
    0 0 z
  EndSpiro
EndSplineSet
Validated: 524325
EndChar

StartChar: uniE00E
Encoding: 57358 57358 14
Width: 800
VWidth: 0
Flags: HW
LayerCount: 2
Fore
SplineSet
267.5 770 m 1
 565.5 555 l 1
 492.5 494 l 1
 234.5 730 l 5
 267.5 770 l 1
476.5 807 m 1
 526.5 733 l 1
 297.5 610 386.5 197 509.5 66 c 1
 448.5 0 l 1
 288.5 152 230.5 696 476.5 807 c 1
EndSplineSet
Validated: 524325
EndChar

StartChar: uniE00F
Encoding: 57359 57359 15
Width: 800
VWidth: 0
Flags: HW
LayerCount: 2
Fore
SplineSet
687.086914062 596 m 29
 435.086914062 796 l 25
 392.086914062 728 l 25
 693.086914062 528 l 25
 687.086914062 596 l 29
342.086914062 370 m 1
 294.086914062 367 247.086914062 341 219.086914062 302 c 0
 201.086914062 277 190.086914062 245 190.086914062 214 c 0
 190.086914062 183 202.086914062 151 222.086914062 127 c 0
 242.086914062 103 272.086914062 88 303.086914062 85 c 0
 334.086914062 82 366.086914062 93 391.086914062 112 c 0
 409.086914062 126 423.086914062 144 433.086914062 164 c 0
 443.086914062 184 449.086914062 207 452.086914062 229 c 0
 458.086914062 274 453.086914062 319 447.086914062 364 c 0
 439.086914062 428 429.086914062 491 419.086914062 554 c 0
 406.086914062 632 388.086914062 709 361.086914062 784 c 1
 437.086914062 797 l 1
 456.086914062 699 478.086914062 601 496.086914062 502 c 0
 507.086914062 444 516.086914062 386 518.086914062 327 c 0
 520.086914062 268 514.086914062 210 493.086914062 155 c 0
 476.086914062 110 447.086914062 69 409.086914062 40 c 0
 371.086914062 11 323.086914062 -4 275.086914062 0 c 0
 237.086914062 3 199.086914062 20 170.086914062 45 c 0
 141.086914062 70 121.086914062 104 112.086914062 142 c 0
 103.086914062 180 106.086914062 220 119.086914062 256 c 0
 132.086914062 292 153.086914062 325 182.086914062 351 c 0
 223.086914062 388 278.086914062 410 333.086914062 413 c 1
 342.086914062 370 l 1
EndSplineSet
Validated: 524325
EndChar

StartChar: uniE010
Encoding: 57360 57360 16
Width: 800
VWidth: 0
InSpiro: 1
Flags: HW
LayerCount: 2
Fore
SplineSet
319.333007812 394.240234375 m 1
 568.165039062 179.200195312 l 1
 528.228515625 151.551757812 l 1
 307.044921875 357.375976562 l 1
 319.333007812 394.240234375 l 1
  Spiro
    319.336 394.24 v
    568.168 179.2 v
    528.232 151.552 v
    307.048 357.376 v
    0 0 z
  EndSpiro
502.62890625 794.624023438 m 1
 483.172851562 735.232421875 l 1
 465.663085938 748.544921875 444.622070312 757.166992188 422.805664062 759.970703125 c 0
 400.989257812 762.774414062 378.452148438 759.751953125 358.145507812 751.299804688 c 0
 337.837890625 742.84765625 319.8125 728.985351562 306.428710938 711.530273438 c 0
 293.045898438 694.07421875 284.336914062 673.068359375 281.444335938 651.263671875 c 0
 278.598632812 629.8046875 281.387695312 607.623046875 289.458984375 587.537109375 c 0
 297.530273438 567.451171875 310.865234375 549.506835938 327.768554688 535.984375 c 0
 344.671875 522.461914062 365.10546875 513.391601562 386.473632812 509.92578125 c 0
 407.840820312 506.4609375 430.09375 508.608398438 450.404296875 516.095703125 c 1
 453.4765625 0 l 1
 373.604492188 0 l 1
 419.684570312 452.608398438 l 1
 368.834960938 451.098632812 317.720703125 472.0234375 282.525390625 508.756835938 c 0
 247.331054688 545.490234375 228.610351562 597.453125 232.29296875 648.192382812 c 0
 234.498046875 678.581054688 244.467773438 708.374023438 260.997070312 733.969726562 c 0
 277.526367188 759.564453125 300.580078125 780.908203125 327.37109375 795.419921875 c 0
 354.161132812 809.931640625 384.633789062 817.581054688 415.1015625 817.442382812 c 0
 445.569335938 817.303710938 475.970703125 809.37890625 502.62890625 794.624023438 c 1
  Spiro
    502.632 794.624 v
    483.176 735.232 v
    281.448 651.264 o
    450.408 516.096 v
    453.48 0 v
    373.608 0 v
    419.688 452.608 v
    232.296 648.192 o
    0 0 z
  EndSpiro
EndSplineSet
Validated: 524325
EndChar

StartChar: uniE011
Encoding: 57361 57361 17
Width: 800
VWidth: 0
InSpiro: 1
Flags: HW
LayerCount: 2
Fore
SplineSet
768.947265625 86.015625 m 1
 721.706054688 134.07421875 678.208007812 185.678710938 636.559570312 238.65625 c 0
 594.692382812 291.91015625 553.908203125 346.49609375 504.486328125 392.82421875 c 0
 452.46484375 441.587890625 390.403320312 480.05859375 322.482421875 501.759765625 c 1
 383.922851562 538.624023438 l 1
 779.186523438 149.50390625 l 1
 768.947265625 86.015625 l 1
  Spiro
    768.946 86.016 v
    636.558 238.657 o
    504.486 392.824 o
    322.482 501.76 v
    383.922 538.624 v
    779.186 149.504 v
    0 0 z
  EndSpiro
500.659179688 260.095703125 m 0
 496.40234375 203.331054688 479.83984375 146.892578125 448.418945312 99.42578125 c 0
 416.999023438 51.958984375 369.37109375 14.3701171875 314.291015625 0 c 0
 273.446289062 -10.65625 229.403320312 -8.365234375 189.73046875 6.0537109375 c 0
 150.05859375 20.4736328125 115.025390625 46.6376953125 88.3203125 79.328125 c 0
 61.6162109375 112.01953125 43.0361328125 151.002929688 32.3193359375 191.831054688 c 0
 21.6025390625 232.66015625 18.5224609375 275.412109375 22.451171875 317.440429688 c 0
 28.72265625 384.529296875 53.267578125 451.004882812 98.1611328125 501.252929688 c 0
 120.607421875 526.376953125 148.106445312 547.129882812 178.921875 560.748046875 c 0
 209.737304688 574.3671875 243.803710938 580.700195312 277.426757812 578.559570312 c 0
 313.422851562 576.268554688 348.655273438 564.256835938 378.971679688 544.71484375 c 0
 409.2890625 525.172851562 434.654296875 498.323242188 453.794921875 467.751953125 c 0
 492.077148438 406.609375 506.052734375 332.032226562 500.659179688 260.095703125 c 0
  Spiro
    500.658 260.096 o
    314.29 0 o
    22.4499 317.44 o
    277.426 578.56 o
    0 0 z
  EndSpiro
271.283203125 507.904296875 m 0
 227.28515625 505.985351562 184.942382812 485.501953125 153.893554688 454.270507812 c 0
 122.84375 423.038085938 102.49609375 381.970703125 93.1064453125 338.944335938 c 0
 85.978515625 306.279296875 84.99609375 272.243164062 90.6083984375 239.284179688 c 0
 96.2216796875 206.326171875 108.587890625 174.373046875 127.836914062 147.037109375 c 0
 147.084960938 119.702148438 173.372070312 97.1435546875 203.922851562 83.5634765625 c 0
 234.473632812 69.982421875 269.115234375 65.66796875 302.002929688 71.6796875 c 0
 344.489257812 79.447265625 383.034179688 104.333007812 410.151367188 137.950195312 c 0
 437.268554688 171.56640625 453.645507812 213.236328125 459.69921875 256 c 0
 468.087890625 315.271484375 456.892578125 378.267578125 423.288085938 427.807617188 c 0
 406.486328125 452.577148438 384.04296875 473.65625 357.697265625 487.862304688 c 0
 331.352539062 502.069335938 301.185546875 509.208007812 271.283203125 507.904296875 c 0
  Spiro
    271.282 507.904 o
    93.1059 338.944 o
    302.002 71.68 o
    459.698 256 o
    0 0 z
  EndSpiro
EndSplineSet
Validated: 524325
EndChar

StartChar: uniE012
Encoding: 57362 57362 18
Width: 800
VWidth: 0
InSpiro: 1
Flags: HW
VStem: 152.72 65.8555<584.803 697.684> 404.095 57.959<2.84904 223.55>
LayerCount: 2
Fore
SplineSet
309.477539062 495.616210938 m 1
 644.326171875 252.927734375 l 1
 647.397460938 317.440429688 l 1
 337.125976562 560.127929688 l 1
 309.477539062 495.616210938 l 1
  Spiro
    309.481 495.616 v
    644.329 252.928 v
    647.401 317.44 v
    337.129 560.128 v
    0 0 z
  EndSpiro
170.213867188 583.6796875 m 1
 216.293945312 571.391601562 l 1
 202.29296875 601.953125 203.194335938 638.913085938 218.575195312 668.803710938 c 0
 233.955078125 698.694335938 263.345703125 720.79296875 296.166015625 728.064453125 c 0
 315.334960938 732.310546875 335.509765625 731.725585938 354.501953125 726.748046875 c 0
 373.495117188 721.770507812 391.278320312 712.448242188 406.513671875 700.063476562 c 0
 436.984375 675.293945312 456.580078125 638.77734375 465.353515625 600.501953125 c 0
 474.127929688 562.2265625 472.77734375 522.227539062 466.860351562 483.407226562 c 0
 460.944335938 444.586914062 450.639648438 406.58984375 440.549804688 368.639648438 c 0
 424.549804688 308.458984375 409.573242188 247.708007812 404.094726562 185.677734375 c 0
 398.616210938 123.6484375 402.275390625 60.74609375 415.973632812 0 c 1
 462.053710938 0 l 1
 464.55859375 104.249023438 479.756835938 207.768554688 498.91796875 310.272460938 c 0
 517.961914062 412.1484375 540.96484375 516.907226562 520.115234375 618.430664062 c 0
 509.690429688 669.19140625 487.227539062 718.321289062 450.76171875 755.140625 c 0
 414.295898438 791.959960938 363.333007812 815.247070312 311.525390625 814.080078125 c 0
 284.575195312 813.47265625 257.749023438 806.389648438 234.194335938 793.280273438 c 0
 210.638671875 780.171875 190.432617188 761.0546875 176.204101562 738.157226562 c 0
 161.9765625 715.260742188 153.775390625 688.645507812 152.719726562 661.708984375 c 0
 151.6640625 634.771484375 157.755859375 607.5859375 170.213867188 583.6796875 c 1
  Spiro
    170.217 583.68 v
    216.297 571.392 v
    296.169 728.064 o
    440.553 368.64 o
    415.977 0 v
    462.057 0 v
    498.921 310.272 o
    311.529 814.08 o
    0 0 z
  EndSpiro
EndSplineSet
Validated: 524325
EndChar

StartChar: uniE013
Encoding: 57363 57363 19
Width: 800
VWidth: 0
Flags: HW
LayerCount: 2
Fore
SplineSet
168 616 m 1
 610 318 l 1
 632 368 l 1
 190 693 l 5
 168 616 l 1
337 812 m 25
 334 0 l 25
 451 0 l 25
 399 812 l 25
 337 812 l 25
EndSplineSet
Validated: 5
EndChar

StartChar: uniE014
Encoding: 57364 57364 20
Width: 800
VWidth: 0
Flags: HW
LayerCount: 2
Fore
SplineSet
159.953125 671 m 1
 475.953125 425 l 1
 472.953125 373 l 5
 144.953125 618 l 1
 159.953125 671 l 1
636.953125 584 m 1
 590.953125 571 l 1
 604.953125 602 603.953125 639 588.953125 669 c 0
 573.953125 699 543.953125 721 510.953125 728 c 0
 491.953125 732 471.953125 732 452.953125 727 c 0
 433.953125 722 415.953125 712 400.953125 700 c 0
 370.953125 675 350.953125 639 341.953125 601 c 0
 332.953125 563 333.953125 522 339.953125 483 c 0
 345.953125 444 356.953125 407 366.953125 369 c 0
 382.953125 309 397.953125 248 402.953125 186 c 0
 407.953125 124 404.953125 61 390.953125 0 c 1
 344.953125 0 l 1
 341.953125 104 326.953125 207 307.953125 310 c 0
 288.953125 412 265.953125 516 286.953125 618 c 0
 296.953125 669 320.953125 718 356.953125 755 c 0
 392.953125 792 443.953125 815 495.953125 814 c 0
 522.953125 813 548.953125 806 572.953125 793 c 0
 596.953125 780 616.953125 761 630.953125 738 c 0
 644.953125 715 653.953125 689 654.953125 662 c 0
 655.953125 635 648.953125 608 636.953125 584 c 1
EndSplineSet
Validated: 524325
EndChar

StartChar: uniE015
Encoding: 57365 57365 21
Width: 800
VWidth: 0
Flags: HW
LayerCount: 2
Fore
SplineSet
468.5 305 m 29
 683.5 50 l 25
 763.5 90 l 25
 511.5 373 l 25
 468.5 305 l 29
803.5 309 m 1
 730.5 358 l 1
 607.5 129 193.5 219 62.5 342 c 1
 -3.5 281 l 1
 148.5 121 692.5 63 803.5 309 c 1
EndSplineSet
Validated: 524325
EndChar

StartChar: uniE016
Encoding: 57366 57366 22
Width: 800
VWidth: 0
Flags: HW
LayerCount: 2
Fore
SplineSet
25.5 310 m 5
 250.5 24 l 1
 291.5 58 l 1
 58.5 321 l 1
 25.5 310 l 5
3.5 68 m 1
 102.5 22 l 1
 132.5 83 176.5 135 231.5 175 c 0
 301.5 226 390.5 253 476.5 240 c 0
 528.5 232 578.5 209 617.5 174 c 0
 656.5 139 685.5 94 698.5 43 c 1
 796.5 98 l 1
 741.5 191 650.5 261 547.5 292 c 0
 435.5 325 310.5 311 206.5 258 c 0
 122.5 215 51.5 149 3.5 68 c 1
3.5 95 m 1048
EndSplineSet
Validated: 524325
EndChar

StartChar: uniE017
Encoding: 57367 57367 23
Width: 800
VWidth: 0
Flags: HW
LayerCount: 2
Fore
SplineSet
287 306 m 29
 563 97 l 25
 502 52 l 25
 237 306 l 25
 287 306 l 29
293 17 m 1
 271 70 l 1
 348 112 406 185 431 269 c 0
 448 327 450 390 440 449 c 0
 430 508 408 565 378 617 c 0
 353 660 323 701 288 737 c 1
 349 803 l 1
 386 745 418 684 445 621 c 0
 469 563 489 502 498 439 c 0
 507 376 506 312 489 251 c 0
 461 150 389 60 293 17 c 1
EndSplineSet
Validated: 37
EndChar

StartChar: uniE018
Encoding: 57368 57368 24
Width: 800
VWidth: 0
Flags: HW
LayerCount: 2
Fore
SplineSet
442.846679688 650 m 1
 209.846679688 758 l 1
 326.846679688 822 l 1
 553.846679688 659 l 1
 455.846679688 579 335.846679688 486 282.846679688 376 c 0
 255.846679688 320 239.846679688 257 251.846679688 197 c 0
 257.846679688 167 269.846679688 138 289.846679688 113 c 0
 309.846679688 88 337.846679688 68 368.846679688 57 c 0
 409.846679688 42 457.846679688 43 497.846679688 61 c 0
 537.846679688 79 568.846679688 113 580.846679688 152 c 0
 589.846679688 183 587.846679688 216 574.846679688 245 c 0
 561.846679688 274 536.846679688 300 506.846679688 316 c 0
 476.846679688 332 441.846679688 339 406.846679688 335 c 0
 371.846679688 331 338.846679688 317 313.846679688 295 c 1
 303.846679688 348 l 1
 341.846679688 369 387.846679688 378 431.846679688 375 c 0
 475.846679688 372 518.846679688 356 551.846679688 329 c 0
 584.846679688 302 609.846679688 266 618.846679688 226 c 0
 627.846679688 186 622.846679688 144 604.846679688 107 c 0
 578.846679688 55 526.846679688 16 466.846679688 2 c 0
 406.846679688 -12 339.846679688 0 288.846679688 32 c 0
 235.846679688 66 198.846679688 120 184.846679688 178 c 0
 170.846679688 236 175.846679688 296 193.846679688 353 c 0
 235.846679688 491 316.846679688 565 442.846679688 650 c 1
EndSplineSet
Validated: 524321
EndChar

StartChar: uniE019
Encoding: 57369 57369 25
Width: 800
VWidth: 0
Flags: HW
LayerCount: 2
Fore
SplineSet
117 481 m 29
 704 137 l 25
 630 20 l 25
 56 435 l 25
 117 481 l 29
123 58 m 1
 391 780 l 1
 744 31 l 1
 621 15 l 1
 394 642 l 1
 268 0 l 1
 123 58 l 1
EndSplineSet
Validated: 5
EndChar

StartChar: uniE01A
Encoding: 57370 57370 26
Width: 800
VWidth: 0
Flags: HW
LayerCount: 2
Fore
SplineSet
388.5 537 m 1
 714.5 207 l 5
 659.5 164 l 1
 391.5 446 l 1
 388.5 537 l 1
85.5 802 m 1
 617.5 814 l 1
 606.5 622 585.5 430 555.5 240 c 0
 542.5 160 528.5 80 512.5 0 c 1
 445.5 18 l 1
 481.5 164 506.5 314 521.5 464 c 0
 530.5 555 536.5 646 537.5 737 c 1
 110.5 713 l 1
 85.5 802 l 1
EndSplineSet
Validated: 524293
EndChar

StartChar: uniE01B
Encoding: 57371 57371 27
Width: 800
VWidth: 0
InSpiro: 1
Flags: HW
LayerCount: 2
Fore
SplineSet
292.421875 465 m 1
 661.421875 182 l 1
 618.421875 139 l 1
 274.421875 403 l 1
 292.421875 465 l 1
  Spiro
    292.422 465 v
    661.422 182 v
    618.422 139 v
    274.422 403 v
    0 0 z
  EndSpiro
82.421875 648 m 1
 279.506835938 666 346.927734375 611.181640625 456.421875 567 c 0
 612.543945312 505.666992188 731.446289062 700.79296875 587.421875 744 c 0
 486.021484375 774.419921875 430.819335938 673.24609375 436.421875 578 c 0
 441.421875 479 486.421875 385 499.421875 287 c 0
 512.421875 189 495.421875 85 445.421875 0 c 1
 383.421875 0 l 1
 430.908203125 94.97265625 442.174804688 205.234375 417.421875 329 c 0
 381.984375 501.126953125 321.416992188 711.889648438 478.421875 796 c 0
 641.876953125 883.564453125 819.178710938 665.375 663.421875 547 c 0
 500.3125 421.53125 289.586914062 625.630859375 76.421875 562 c 1
 82.421875 648 l 1
  Spiro
    82.4221 648 v
    116.535 661.581 o
    152.31 670.08 o
    188.422 673 o
    224.312 670.413 o
    259.865 662.916 o
    294.422 651 o
    348.591 624.141 o
    401.586 593.859 o
    456.422 567 o
    485.503 557.563 o
    516.008 552.108 o
    546.422 552 o
    576.023 558.065 o
    603.485 570.608 o
    626.422 590 o
    638.671 607.204 o
    647.169 626.464 o
    651.422 647 o
    651.091 667.868 o
    646.081 688.131 o
    636.422 707 o
    622.845 723.245 o
    606.33 735.751 o
    587.422 744 o
    566.924 747.961 o
    545.92 747.701 o
    525.422 743 o
    495.413 727.649 o
    470.437 704.678 o
    452.422 676 o
    441.615 644.403 o
    436.568 611.596 o
    436.422 578 o
    452.065 480.43 o
    478.448 383.904 o
    499.422 287 o
    502.318 188.025 o
    484.505 90.3125 o
    445.422 0 v
    383.422 0 v
    405.329 51.4656 o
    420.842 105.536 o
    429.422 161 o
    430.979 217.166 o
    426.526 273.5 o
    417.422 329 o
    401.809 396.192 o
    385.703 463.141 o
    373.422 531 o
    369.832 565.484 o
    369.349 600.516 o
    372.422 635 o
    379.746 668.523 o
    391.77 700.809 o
    408.422 731 o
    428.326 756.495 o
    451.855 778.501 o
    478.422 796 o
    507.836 808.324 o
    539.343 815.338 o
    571.422 817 o
    602.169 813.044 o
    631.673 803.284 o
    658.422 788 o
    681.808 767.282 o
    701.031 742.047 o
    714.422 714 o
    721.381 683.957 o
    722.123 652.71 o
    716.422 622 o
    704.252 593.471 o
    686.253 568.199 o
    663.422 547 o
    635.895 529.681 o
    605.613 517.657 o
    573.422 511 o
    540.492 509.185 o
    507.686 511.152 o
    475.422 516 o
    412.004 532.13 o
    348.84 551.204 o
    285.422 568 o
    215.53 577.552 o
    144.982 575.77 o
    76.4221 562 v
    0 0 z
  EndSpiro
EndSplineSet
Validated: 524325
EndChar

StartChar: uniE01C
Encoding: 57372 57372 28
Width: 800
VWidth: 0
Flags: HW
LayerCount: 2
Fore
SplineSet
261.5 478 m 29
 553.5 484 l 25
 550.5 389 l 25
 215.5 417 l 25
 261.5 478 l 29
534.5 807 m 1
 584.5 733 l 1
 355.5 610 444.5 197 567.5 66 c 1
 506.5 0 l 1
 346.5 152 288.5 696 534.5 807 c 1
EndSplineSet
Validated: 524325
EndChar

StartChar: uniE01D
Encoding: 57373 57373 29
Width: 800
VWidth: 0
Flags: HW
LayerCount: 2
Fore
SplineSet
335.086914062 562 m 29
 655.086914062 550 l 29
 652.086914062 467 l 29
 323.086914062 510 l 29
 335.086914062 562 l 29
380.086914062 370 m 1
 332.086914062 367 285.086914062 341 257.086914062 302 c 0
 239.086914062 277 228.086914062 245 228.086914062 214 c 0
 228.086914062 183 240.086914062 151 260.086914062 127 c 0
 280.086914062 103 310.086914062 88 341.086914062 85 c 0
 372.086914062 82 404.086914062 93 429.086914062 112 c 0
 447.086914062 126 461.086914062 144 471.086914062 164 c 0
 481.086914062 184 487.086914062 207 490.086914062 229 c 0
 496.086914062 274 491.086914062 319 485.086914062 364 c 0
 477.086914062 428 467.086914062 491 457.086914062 554 c 0
 444.086914062 632 426.086914062 709 399.086914062 784 c 1
 475.086914062 797 l 1
 494.086914062 699 516.086914062 601 534.086914062 502 c 0
 545.086914062 444 554.086914062 386 556.086914062 327 c 0
 558.086914062 268 552.086914062 210 531.086914062 155 c 0
 514.086914062 110 485.086914062 69 447.086914062 40 c 0
 409.086914062 11 361.086914062 -4 313.086914062 0 c 0
 275.086914062 3 237.086914062 20 208.086914062 45 c 0
 179.086914062 70 159.086914062 104 150.086914062 142 c 0
 141.086914062 180 144.086914062 220 157.086914062 256 c 0
 170.086914062 292 191.086914062 325 220.086914062 351 c 0
 261.086914062 388 316.086914062 410 371.086914062 413 c 1
 380.086914062 370 l 1
EndSplineSet
Validated: 524325
EndChar

StartChar: uniE01E
Encoding: 57374 57374 30
Width: 800
VWidth: 0
InSpiro: 1
Flags: HW
LayerCount: 2
Fore
SplineSet
289.63671875 252.927734375 m 25
 547.684570312 256 l 25
 553.829101562 209.919921875 l 25
 304.997070312 197.631835938 l 25
 289.63671875 252.927734375 l 25
  Spiro
    289.637 252.928 v
    547.685 256 v
    553.829 209.92 v
    304.997 197.632 v
    0 0 z
  EndSpiro
516.96484375 794.624023438 m 1
 501.604492188 741.375976562 l 1
 483.444335938 755.055664062 461.606445312 763.803710938 439.0234375 766.4453125 c 0
 416.44140625 769.086914062 393.173828125 765.616210938 372.346679688 756.497070312 c 0
 351.518554688 747.37890625 333.185546875 732.63671875 319.80859375 714.251953125 c 0
 306.432617188 695.8671875 298.047851562 673.88671875 295.780273438 651.263671875 c 0
 291.513671875 608.68359375 310.1015625 564.484375 343.517578125 537.751953125 c 0
 376.934570312 511.018554688 424.134765625 502.5859375 464.740234375 516.095703125 c 1
 467.8125 0 l 1
 387.940429688 0 l 1
 434.020507812 452.608398438 l 1
 383.170898438 451.098632812 332.056640625 472.0234375 296.861328125 508.756835938 c 0
 261.666992188 545.490234375 242.946289062 597.453125 246.62890625 648.192382812 c 0
 248.833984375 678.581054688 258.803710938 708.374023438 275.333007812 733.969726562 c 0
 291.862304688 759.564453125 314.916015625 780.908203125 341.70703125 795.419921875 c 0
 368.497070312 809.931640625 398.969726562 817.581054688 429.4375 817.442382812 c 0
 459.905273438 817.303710938 490.306640625 809.37890625 516.96484375 794.624023438 c 1
  Spiro
    516.965 794.624 v
    501.605 741.376 v
    295.781 651.264 o
    464.741 516.096 v
    467.813 0 v
    387.941 0 v
    434.021 452.608 v
    246.629 648.192 o
    0 0 z
  EndSpiro
EndSplineSet
Validated: 524325
EndChar

StartChar: uniE01F
Encoding: 57375 57375 31
Width: 800
VWidth: 0
InSpiro: 1
Flags: HW
LayerCount: 2
Fore
SplineSet
744.237304688 579.583984375 m 1
 699.181640625 487.423828125 l 1
 310.061523438 520.192382812 l 1
 297.7734375 573.440429688 l 1
 744.237304688 579.583984375 l 1
  Spiro
    744.242 579.584 v
    699.186 487.424 v
    310.066 520.192 v
    297.778 573.44 v
    0 0 z
  EndSpiro
312.109375 578.559570312 m 0
 353.291015625 581.043945312 395.01953125 573.266601562 432.647460938 556.349609375 c 0
 470.275390625 539.432617188 503.724609375 513.490234375 530.002929688 481.686523438 c 0
 582.560546875 418.078125 605.43359375 331.670898438 594.733398438 249.856445312 c 0
 586.55078125 187.293945312 558.9609375 127.073242188 515.340820312 81.4853515625 c 0
 471.720703125 35.8974609375 411.805664062 5.7529296875 348.973632812 0 c 0
 308.124023438 -3.740234375 266.415039062 2.6484375 228.471679688 18.234375 c 0
 190.528320312 33.8203125 156.434570312 58.4931640625 129.266601562 89.2255859375 c 0
 74.9296875 150.69140625 49.3466796875 235.770507812 57.1337890625 317.440429688 c 0
 63.4189453125 383.364257812 91.2119140625 447.444335938 136.783203125 495.494140625 c 0
 176.197265625 537.05078125 229.134765625 565.875976562 285.485351562 575.487304688 c 1
 294.290039062 576.98828125 303.176757812 578.021484375 312.109375 578.559570312 c 0
  Spiro
    594.738 249.856 o
    348.978 0 o
    57.138 317.44 o
    312.114 578.56 o
    0 0 z
  EndSpiro
305.965820312 507.904296875 m 0
 262.799804688 502.038085938 221.859375 481.716796875 190.482421875 451.497070312 c 0
 159.106445312 421.27734375 137.255859375 381.465820312 127.7890625 338.944335938 c 0
 113.62890625 275.333984375 127.872070312 205.553710938 167.309570312 153.674804688 c 0
 187.028320312 127.735351562 212.774414062 106.354492188 242.061523438 92.0732421875 c 0
 271.348632812 77.7919921875 304.1171875 70.68359375 336.685546875 71.6796875 c 0
 383.989257812 73.126953125 430.404296875 91.962890625 465.993164062 123.159179688 c 0
 501.581054688 154.35546875 526.341796875 197.459960938 536.365234375 243.711914062 c 0
 550.868164062 310.630859375 533.68359375 384.1796875 489.401367188 436.404296875 c 0
 467.259765625 462.517578125 438.696289062 483.206054688 406.83203125 495.7265625 c 0
 374.966796875 508.24609375 339.889648438 512.513671875 305.965820312 507.904296875 c 0
  Spiro
    305.97 507.904 o
    127.794 338.944 o
    336.69 71.68 o
    536.37 243.712 o
    0 0 z
  EndSpiro
EndSplineSet
Validated: 524325
EndChar

StartChar: uniE020
Encoding: 57376 57376 32
Width: 800
VWidth: 0
Flags: HW
LayerCount: 2
Fore
SplineSet
319.553710938 523 m 29
 306.553710938 471 l 25
 635.553710938 428 l 25
 638.553710938 511 l 25
 319.553710938 523 l 29
178.553710938 584 m 1
 224.553710938 571 l 1
 210.553710938 602 212.553710938 639 227.553710938 669 c 0
 242.553710938 699 271.553710938 721 304.553710938 728 c 0
 323.553710938 732 344.553710938 732 363.553710938 727 c 0
 382.553710938 722 400.553710938 712 415.553710938 700 c 0
 445.553710938 675 464.553710938 639 473.553710938 601 c 0
 482.553710938 563 481.553710938 522 475.553710938 483 c 0
 469.553710938 444 459.553710938 407 449.553710938 369 c 0
 433.553710938 309 417.553710938 248 412.553710938 186 c 0
 407.553710938 124 410.553710938 61 424.553710938 0 c 1
 470.553710938 0 l 1
 473.553710938 104 488.553710938 207 507.553710938 310 c 0
 526.553710938 412 549.553710938 516 528.553710938 618 c 0
 518.553710938 669 495.553710938 718 459.553710938 755 c 0
 423.553710938 792 372.553710938 815 320.553710938 814 c 0
 293.553710938 813 266.553710938 806 242.553710938 793 c 0
 218.553710938 780 198.553710938 761 184.553710938 738 c 0
 170.553710938 715 162.553710938 689 161.553710938 662 c 0
 160.553710938 635 166.553710938 608 178.553710938 584 c 1
EndSplineSet
Validated: 524325
EndChar

StartChar: uniE021
Encoding: 57377 57377 33
Width: 800
VWidth: 0
Flags: HW
LayerCount: 2
Fore
SplineSet
249 463 m 1
 237 411 l 1
 563 395 l 5
 554 454 l 1
 249 463 l 1
345 812 m 25
 342 0 l 25
 459 0 l 25
 407 812 l 25
 345 812 l 25
EndSplineSet
Validated: 5
EndChar

StartChar: uniE022
Encoding: 57378 57378 34
Width: 800
VWidth: 0
Flags: HW
LayerCount: 2
Fore
SplineSet
153.953125 440 m 29
 506.953125 410 l 25
 485.953125 339 l 25
 190.953125 354 l 25
 153.953125 440 l 29
627.953125 584 m 1
 581.953125 571 l 1
 595.953125 602 594.953125 639 579.953125 669 c 0
 564.953125 699 534.953125 721 501.953125 728 c 0
 482.953125 732 462.953125 732 443.953125 727 c 0
 424.953125 722 406.953125 712 391.953125 700 c 0
 361.953125 675 341.953125 639 332.953125 601 c 0
 323.953125 563 324.953125 522 330.953125 483 c 0
 336.953125 444 347.953125 407 357.953125 369 c 0
 373.953125 309 388.953125 248 393.953125 186 c 0
 398.953125 124 395.953125 61 381.953125 0 c 1
 335.953125 0 l 1
 332.953125 104 317.953125 207 298.953125 310 c 0
 279.953125 412 256.953125 516 277.953125 618 c 0
 287.953125 669 311.953125 718 347.953125 755 c 0
 383.953125 792 434.953125 815 486.953125 814 c 0
 513.953125 813 539.953125 806 563.953125 793 c 0
 587.953125 780 607.953125 761 621.953125 738 c 0
 635.953125 715 644.953125 689 645.953125 662 c 0
 646.953125 635 639.953125 608 627.953125 584 c 1
EndSplineSet
Validated: 524325
EndChar

StartChar: uniE023
Encoding: 57379 57379 35
Width: 800
VWidth: 0
Flags: HW
LayerCount: 2
Fore
SplineSet
379 472 m 1
 424 376 l 1
 805 364 l 1
 821 407 l 1
 379 472 l 1
821 407 m 1
 690 413 l 1
 680 128 176 219 45 342 c 1
 -21 281 l 1
 131 121 788 40 821 407 c 1
EndSplineSet
Validated: 37
EndChar

StartChar: uniE024
Encoding: 57380 57380 36
Width: 800
VWidth: 0
InSpiro: 1
Flags: HW
LayerCount: 2
Fore
SplineSet
370.81640625 117.759765625 m 1
 376.959960938 44.0322265625 l 1
 800.896484375 39.935546875 l 1
 743.551757812 113.6640625 l 1
 370.81640625 117.759765625 l 1
  Spiro
    376.963 44.032 v
    800.899 39.936 v
    743.555 113.664 v
    370.819 117.76 v
    0 0 z
  EndSpiro
-4.9921875 67.583984375 m 1
 93.3125 21.50390625 l 1
 123.06640625 82.130859375 167.561523438 135.59765625 222.3359375 175.103515625 c 0
 292.797851562 225.924804688 382.252929688 252.978515625 468.095703125 239.616210938 c 0
 519.696289062 231.583984375 569.084960938 208.991210938 608.225585938 174.420898438 c 0
 647.366210938 139.849609375 676 93.5126953125 689.280273438 43.0078125 c 1
 804.9921875 37.8876953125 l 1
 762.654296875 157.874023438 660.389648438 254.513671875 538.751953125 291.83984375 c 0
 426.80078125 326.193359375 301.962890625 311.48046875 197.759765625 258.047851562 c 0
 114.171875 215.185546875 43.220703125 148.205078125 -4.9921875 67.583984375 c 1
  Spiro
    -4.98868 67.584 v
    93.3153 21.504 v
    222.339 175.104 o
    468.099 239.616 o
    689.283 43.008 v
    804.995 37.888 v
    538.755 291.84 o
    197.763 258.048 o
    0 0 z
  EndSpiro
-4.9921875 95.232421875 m 1048
  Spiro
    -4.98868 95.232 {
    0 0 z
  EndSpiro
EndSplineSet
Validated: 524325
EndChar

StartChar: uniE025
Encoding: 57381 57381 37
Width: 800
VWidth: 0
Flags: HW
LayerCount: 2
Fore
SplineSet
242 433 m 29
 589 433 l 25
 558 335 l 25
 242 402 l 25
 242 433 l 29
233 17 m 1
 211 70 l 1
 288 112 346 185 371 269 c 0
 388 327 390 390 380 449 c 0
 370 508 348 565 318 617 c 0
 293 660 263 701 228 737 c 1
 289 803 l 1
 326 745 358 684 385 621 c 0
 409 563 429 502 438 439 c 0
 447 376 446 312 429 251 c 0
 401 150 329 60 233 17 c 1
EndSplineSet
Validated: 37
EndChar

StartChar: uniE026
Encoding: 57382 57382 38
Width: 800
VWidth: 0
Flags: HW
LayerCount: 2
Fore
SplineSet
205.313476562 590 m 29
 531.313476562 599 l 25
 509.313476562 522 l 25
 147.313476562 516 l 25
 205.313476562 590 l 29
496.313476562 765 m 1
 551.313476562 725 l 1
 453.313476562 637 365.313476562 536 312.313476562 415 c 0
 285.313476562 353 269.313476562 284 281.313476562 218 c 0
 287.313476562 185 299.313476562 153 319.313476562 126 c 0
 339.313476562 99 367.313476562 77 398.313476562 65 c 0
 439.313476562 49 487.313476562 49 527.313476562 69 c 0
 567.313476562 89 598.313476562 126 610.313476562 169 c 0
 619.313476562 203 617.313476562 239 604.313476562 271 c 0
 591.313476562 303 566.313476562 331 536.313476562 349 c 0
 506.313476562 367 471.313476562 374 436.313476562 370 c 0
 401.313476562 366 368.313476562 350 343.313476562 326 c 1
 333.313476562 384 l 1
 371.313476562 407 417.313476562 418 461.313476562 414 c 0
 505.313476562 410 548.313476562 392 581.313476562 363 c 0
 614.313476562 334 639.313476562 293 648.313476562 250 c 0
 657.313476562 207 652.313476562 161 634.313476562 120 c 0
 608.313476562 63 556.313476562 19 496.313476562 4 c 0
 436.313476562 -11 369.313476562 1 318.313476562 37 c 0
 265.313476562 74 228.313476562 134 214.313476562 197 c 0
 200.313476562 260 205.313476562 327 223.313476562 390 c 0
 265.313476562 542 370.313476562 671 496.313476562 765 c 1
EndSplineSet
Validated: 524325
EndChar

StartChar: uniE027
Encoding: 57383 57383 39
Width: 800
VWidth: 0
Flags: HW
LayerCount: 2
Fore
SplineSet
334.5 361 m 1
 727.5 365 l 1
 730.5 269 l 1
 324.5 263 l 1
 334.5 361 l 1
69.5 58 m 1
 337.5 780 l 1
 690.5 31 l 1
 567.5 15 l 1
 340.5 642 l 1
 214.5 0 l 1
 69.5 58 l 1
EndSplineSet
Validated: 524293
EndChar

StartChar: uniE028
Encoding: 57384 57384 40
Width: 800
VWidth: 0
Flags: HW
LayerCount: 2
Fore
SplineSet
331.5 496 m 29
 731.5 481 l 1
 712.5 401 l 25
 310.5 416 l 1
 331.5 496 l 29
68.5 802 m 1
 600.5 814 l 1
 589.5 622 568.5 430 538.5 240 c 0
 525.5 160 511.5 80 495.5 0 c 1
 428.5 18 l 1
 464.5 164 489.5 314 504.5 464 c 0
 513.5 555 519.5 646 520.5 737 c 1
 93.5 713 l 1
 68.5 802 l 1
EndSplineSet
Validated: 524293
EndChar

StartChar: uniE029
Encoding: 57385 57385 41
Width: 800
VWidth: 0
InSpiro: 1
Flags: HW
LayerCount: 2
Fore
SplineSet
298.915039062 299 m 25
 590.915039062 308 l 25
 596.915039062 250 l 25
 335.915039062 250 l 25
 298.915039062 299 l 25
  Spiro
    298.915 299 v
    590.915 308 v
    596.915 250 v
    335.915 250 v
    0 0 z
  EndSpiro
82.9150390625 648 m 1
 115.915039062 664 152.915039062 673 188.915039062 673 c 0
 224.915039062 673 260.915039062 665 294.915039062 651 c 0
 350.915039062 628 399.915039062 590 456.915039062 567 c 0
 484.915039062 556 516.915039062 549 546.915039062 552 c 0
 576.915039062 555 606.915039062 567 626.915039062 590 c 0
 640.915039062 606 649.915039062 626 651.915039062 647 c 0
 653.915039062 668 648.915039062 689 636.915039062 707 c 0
 624.915039062 725 607.915039062 738 587.915039062 744 c 0
 567.915039062 750 545.915039062 750 525.915039062 743 c 0
 493.915039062 732 466.915039062 707 452.915039062 676 c 0
 438.915039062 645 434.915039062 612 436.915039062 578 c 0
 441.915039062 479 486.915039062 385 499.915039062 287 c 0
 512.915039062 189 495.915039062 85 445.915039062 0 c 1
 383.915039062 0 l 1
 408.915039062 50 424.915039062 105 429.915039062 161 c 0
 434.915039062 217 428.915039062 274 417.915039062 329 c 0
 403.915039062 397 382.915039062 462 373.915039062 531 c 0
 368.915039062 565 367.915039062 601 372.915039062 635 c 0
 377.915039062 669 389.915039062 702 408.915039062 731 c 0
 426.915039062 758 450.915039062 781 478.915039062 796 c 0
 506.915039062 811 539.915039062 818 571.915039062 817 c 0
 602.915039062 816 633.915039062 806 658.915039062 788 c 0
 683.915039062 770 704.915039062 743 714.915039062 714 c 0
 724.915039062 685 725.915039062 652 716.915039062 622 c 0
 707.915039062 592 688.915039062 566 663.915039062 547 c 0
 637.915039062 527 606.915039062 515 573.915039062 511 c 0
 540.915039062 507 507.915039062 510 475.915039062 516 c 0
 411.915039062 529 349.915039062 554 285.915039062 568 c 0
 216.915039062 583 143.915039062 582 76.9150390625 562 c 1
 82.9150390625 648 l 1
  Spiro
    82.9153 648 v
    117.028 661.581 o
    152.803 670.08 o
    188.915 673 o
    224.805 670.413 o
    260.358 662.916 o
    294.915 651 o
    349.084 624.141 o
    402.079 593.859 o
    456.915 567 o
    485.996 557.563 o
    516.501 552.108 o
    546.915 552 o
    576.516 558.065 o
    603.978 570.608 o
    626.915 590 o
    639.164 607.204 o
    647.662 626.464 o
    651.915 647 o
    651.584 667.868 o
    646.574 688.131 o
    636.915 707 o
    623.338 723.245 o
    606.823 735.751 o
    587.915 744 o
    567.417 747.961 o
    546.413 747.701 o
    525.915 743 o
    495.906 727.649 o
    470.93 704.678 o
    452.915 676 o
    442.108 644.403 o
    437.061 611.596 o
    436.915 578 o
    452.558 480.43 o
    478.941 383.904 o
    499.915 287 o
    502.811 188.025 o
    484.998 90.3125 o
    445.915 0 v
    383.915 0 v
    405.822 51.4656 o
    421.335 105.536 o
    429.915 161 o
    431.472 217.166 o
    427.019 273.5 o
    417.915 329 o
    402.302 396.192 o
    386.196 463.141 o
    373.915 531 o
    370.325 565.484 o
    369.842 600.516 o
    372.915 635 o
    380.239 668.523 o
    392.263 700.809 o
    408.915 731 o
    428.819 756.495 o
    452.348 778.501 o
    478.915 796 o
    508.329 808.324 o
    539.836 815.338 o
    571.915 817 o
    602.662 813.044 o
    632.166 803.284 o
    658.915 788 o
    682.301 767.282 o
    701.524 742.047 o
    714.915 714 o
    721.874 683.957 o
    722.616 652.71 o
    716.915 622 o
    704.745 593.471 o
    686.746 568.199 o
    663.915 547 o
    636.388 529.681 o
    606.106 517.657 o
    573.915 511 o
    540.985 509.185 o
    508.179 511.152 o
    475.915 516 o
    412.497 532.13 o
    349.333 551.204 o
    285.915 568 o
    216.023 577.552 o
    145.475 575.77 o
    76.9153 562 v
    0 0 z
  EndSpiro
EndSplineSet
Validated: 524325
EndChar

StartChar: uniE02A
Encoding: 57386 57386 42
Width: 800
VWidth: 0
Flags: HW
LayerCount: 2
Fore
SplineSet
237 94 m 5
 506 282 l 1
 563 254 l 1
 301 63 l 1
 237 94 l 5
497 807 m 1
 547 733 l 1
 318 610 407 197 530 66 c 1
 469 0 l 1
 309 152 251 696 497 807 c 1
EndSplineSet
Validated: 37
EndChar

StartChar: uniE02B
Encoding: 57387 57387 43
Width: 800
VWidth: 0
InSpiro: 1
Flags: HW
LayerCount: 2
Fore
SplineSet
631.3046875 645.120117188 m 1
 572.500976562 580.4140625 505.579101562 523.612304688 436.401367188 470.141601562 c 0
 401.8125 443.40625 366.747070312 417.171875 334.368164062 387.798828125 c 0
 301.990234375 358.424804688 271.845703125 325.353515625 253.448242188 285.696289062 c 0
 237.737304688 251.828125 231.568359375 212.21484375 243.49609375 176.836914062 c 0
 249.459960938 159.1484375 259.88671875 142.89453125 273.939453125 130.606445312 c 0
 287.9921875 118.318359375 305.62109375 110.1328125 324.104492188 107.51953125 c 0
 349.9453125 103.8671875 376.903320312 111.393554688 398.00390625 126.75 c 0
 419.104492188 142.107421875 434.328125 164.669921875 443.481445312 189.110351562 c 0
 461.7890625 237.989257812 457.932617188 292.08984375 453.127929688 344.064453125 c 0
 450.567382812 371.765625 447.430664062 399.412109375 443.912109375 427.0078125 c 0
 428.3671875 548.943359375 401.1484375 669.712890625 356.872070312 784.383789062 c 1
 433.671875 796.671875 l 1
 454.874023438 698.720703125 475.643554688 600.62890625 492.040039062 501.759765625 c 0
 501.606445312 444.079101562 509.579101562 385.993164062 511.391601562 327.551757812 c 0
 513.203125 269.111328125 508.811523438 209.623046875 488.967773438 154.624023438 c 0
 472.19921875 108.147460938 443.12890625 64.8134765625 401.365234375 38.4111328125 c 0
 380.483398438 25.2109375 356.685546875 16.4765625 332.119140625 13.8701171875 c 0
 307.551757812 11.2646484375 282.310546875 14.8701171875 259.591796875 24.576171875 c 0
 231.89453125 36.4091796875 208.267578125 57.3017578125 192.575195312 83.009765625 c 0
 176.881835938 108.717773438 169.090820312 138.922851562 168.7109375 169.0390625 c 0
 167.952148438 229.2734375 195.78125 286.672851562 231.944335938 334.84765625 c 0
 322.521484375 455.51171875 448.987304688 543.65234375 560.6484375 645.120117188 c 1
 631.3046875 645.120117188 l 1
  Spiro
    631.304 645.12 v
    253.448 285.696 o
    324.104 107.52 o
    453.128 344.064 o
    443.912 427.008 o
    356.872 784.384 v
    433.672 796.672 v
    492.04 501.76 o
    488.968 154.624 o
    259.592 24.576 o
    231.944 334.848 o
    560.648 645.12 v
    0 0 z
  EndSpiro
EndSplineSet
Validated: 524325
EndChar

StartChar: uniE02C
Encoding: 57388 57388 44
Width: 800
VWidth: 0
InSpiro: 1
Flags: HW
LayerCount: 2
Fore
SplineSet
317.28515625 246.784179688 m 1
 532.32421875 394.240234375 l 1
 553.829101562 348.16015625 l 1
 348.004882812 203.776367188 l 1
 317.28515625 246.784179688 l 1
  Spiro
    317.284 246.784 v
    532.324 394.24 v
    553.828 348.16 v
    348.004 203.776 v
    0 0 z
  EndSpiro
65.380859375 254.975585938 m 1024
  Spiro
    65.3797 254.976 {
    0 0 z
  EndSpiro
516.96484375 794.624023438 m 1
 501.604492188 741.375976562 l 1
 483.444335938 755.055664062 461.606445312 763.803710938 439.0234375 766.4453125 c 0
 416.44140625 769.086914062 393.173828125 765.616210938 372.346679688 756.497070312 c 0
 351.518554688 747.37890625 333.185546875 732.63671875 319.80859375 714.251953125 c 0
 306.432617188 695.8671875 298.047851562 673.88671875 295.780273438 651.263671875 c 0
 291.513671875 608.68359375 310.1015625 564.484375 343.517578125 537.751953125 c 0
 376.934570312 511.018554688 424.134765625 502.5859375 464.740234375 516.095703125 c 1
 467.8125 0 l 1
 387.940429688 0 l 1
 434.020507812 452.608398438 l 1
 383.170898438 451.098632812 332.056640625 472.0234375 296.861328125 508.756835938 c 0
 261.666992188 545.490234375 242.946289062 597.453125 246.62890625 648.192382812 c 0
 248.833984375 678.581054688 258.803710938 708.374023438 275.333007812 733.969726562 c 0
 291.862304688 759.564453125 314.916015625 780.908203125 341.70703125 795.419921875 c 0
 368.497070312 809.931640625 398.969726562 817.581054688 429.4375 817.442382812 c 0
 459.905273438 817.303710938 490.306640625 809.37890625 516.96484375 794.624023438 c 1
  Spiro
    516.964 794.624 v
    501.604 741.376 v
    295.78 651.264 o
    464.74 516.096 v
    467.812 0 v
    387.94 0 v
    434.02 452.608 v
    246.628 648.192 o
    0 0 z
  EndSpiro
EndSplineSet
Validated: 524325
EndChar

StartChar: uniE02D
Encoding: 57389 57389 45
Width: 800
VWidth: 0
Flags: HW
LayerCount: 2
Fore
SplineSet
270.19140625 413 m 1
 605.19140625 662 l 1
 725.19140625 600 l 1
 350.19140625 388 l 1
 270.19140625 413 l 1
331.19140625 579 m 0
 372.19140625 581 414.19140625 573 452.19140625 556 c 0
 490.19140625 539 523.19140625 514 549.19140625 482 c 0
 602.19140625 418 625.19140625 332 614.19140625 250 c 0
 606.19140625 187 579.19140625 127 535.19140625 81 c 0
 491.19140625 35 431.19140625 6 368.19140625 0 c 0
 327.19140625 -4 286.19140625 2 248.19140625 18 c 0
 210.19140625 34 176.19140625 58 149.19140625 89 c 0
 95.19140625 150 68.19140625 235 76.19140625 317 c 0
 82.19140625 383 110.19140625 447 156.19140625 495 c 0
 202.19140625 543 265.19140625 575 331.19140625 579 c 0
325.19140625 508 m 0
 282.19140625 502 241.19140625 481 210.19140625 451 c 0
 179.19140625 421 156.19140625 382 147.19140625 339 c 0
 133.19140625 275 148.19140625 206 187.19140625 154 c 0
 207.19140625 128 232.19140625 106 261.19140625 92 c 0
 290.19140625 78 323.19140625 71 356.19140625 72 c 0
 403.19140625 73 449.19140625 92 485.19140625 123 c 0
 521.19140625 154 546.19140625 198 556.19140625 244 c 0
 571.19140625 311 553.19140625 384 509.19140625 436 c 0
 487.19140625 462 458.19140625 483 426.19140625 496 c 0
 394.19140625 509 359.19140625 513 325.19140625 508 c 0
EndSplineSet
Validated: 524325
EndChar

StartChar: uniE02E
Encoding: 57390 57390 46
Width: 800
VWidth: 0
Flags: HW
LayerCount: 2
Fore
SplineSet
205.553710938 308 m 1
 282.553710938 305 l 1
 684.553710938 643 l 5
 600.553710938 646 l 1
 205.553710938 308 l 1
132.553710938 584 m 1
 178.553710938 571 l 1
 164.553710938 602 166.553710938 639 181.553710938 669 c 0
 196.553710938 699 225.553710938 721 258.553710938 728 c 0
 277.553710938 732 298.553710938 732 317.553710938 727 c 0
 336.553710938 722 354.553710938 712 369.553710938 700 c 0
 399.553710938 675 418.553710938 639 427.553710938 601 c 0
 436.553710938 563 435.553710938 522 429.553710938 483 c 0
 423.553710938 444 413.553710938 407 403.553710938 369 c 0
 387.553710938 309 371.553710938 248 366.553710938 186 c 0
 361.553710938 124 364.553710938 61 378.553710938 0 c 1
 424.553710938 0 l 1
 427.553710938 104 442.553710938 207 461.553710938 310 c 0
 480.553710938 412 503.553710938 516 482.553710938 618 c 0
 472.553710938 669 449.553710938 718 413.553710938 755 c 0
 377.553710938 792 326.553710938 815 274.553710938 814 c 0
 247.553710938 813 220.553710938 806 196.553710938 793 c 0
 172.553710938 780 152.553710938 761 138.553710938 738 c 0
 124.553710938 715 116.553710938 689 115.553710938 662 c 0
 114.553710938 635 120.553710938 608 132.553710938 584 c 1
EndSplineSet
Validated: 524325
EndChar

StartChar: uniE02F
Encoding: 57391 57391 47
Width: 800
VWidth: 0
Flags: HW
LayerCount: 2
Fore
SplineSet
245 223 m 5
 656 570 l 1
 540 558 l 1
 144 229 l 1
 245 223 l 5
347 812 m 25
 344 0 l 25
 461 0 l 25
 409 812 l 25
 347 812 l 25
EndSplineSet
Validated: 5
EndChar

StartChar: uniE030
Encoding: 57392 57392 48
Width: 800
VWidth: 0
Flags: HW
LayerCount: 2
Fore
SplineSet
240.953125 142 m 5
 173.953125 145 l 1
 400.953125 407 l 1
 480.953125 379 l 1
 240.953125 142 l 5
607.953125 584 m 1
 561.953125 571 l 1
 575.953125 602 574.953125 639 559.953125 669 c 0
 544.953125 699 514.953125 721 481.953125 728 c 0
 462.953125 732 442.953125 732 423.953125 727 c 0
 404.953125 722 386.953125 712 371.953125 700 c 0
 341.953125 675 321.953125 639 312.953125 601 c 0
 303.953125 563 304.953125 522 310.953125 483 c 0
 316.953125 444 327.953125 407 337.953125 369 c 0
 353.953125 309 368.953125 248 373.953125 186 c 0
 378.953125 124 375.953125 61 361.953125 0 c 1
 315.953125 0 l 1
 312.953125 104 297.953125 207 278.953125 310 c 0
 259.953125 412 236.953125 516 257.953125 618 c 0
 267.953125 669 291.953125 718 327.953125 755 c 0
 363.953125 792 414.953125 815 466.953125 814 c 0
 493.953125 813 519.953125 806 543.953125 793 c 0
 567.953125 780 587.953125 761 601.953125 738 c 0
 615.953125 715 624.953125 689 625.953125 662 c 0
 626.953125 635 619.953125 608 607.953125 584 c 1
EndSplineSet
Validated: 524325
EndChar

StartChar: uniE031
Encoding: 57393 57393 49
Width: 800
VWidth: 0
InSpiro: 1
Flags: HW
LayerCount: 2
Fore
SplineSet
57.9833984375 138.240234375 m 1
 92.7998046875 103.423828125 l 1
 279.16796875 377.856445312 l 1
 225.919921875 412.671875 l 1
 57.9833984375 138.240234375 l 1
  Spiro
    92.8 103.424 v
    279.168 377.856 v
    225.92 412.672 v
    57.984 138.24 v
    0 0 z
  EndSpiro
803.456054688 309.248046875 m 1
 729.727539062 358.400390625 l 1
 606.84765625 129.024414062 193.151367188 219.135742188 62.080078125 342.015625 c 1
 -3.4560546875 280.576171875 l 1
 148.095703125 120.83203125 692.86328125 63.48828125 803.456054688 309.248046875 c 1
  Spiro
    803.456 309.248 v
    729.728 358.4 v
    531.4 224.949 o
    265.866 240.748 o
    62.08 342.016 v
    -3.456 280.576 v
    248.202 162.468 o
    579.09 157.155 o
    0 0 z
  EndSpiro
EndSplineSet
Validated: 524325
EndChar

StartChar: uniE032
Encoding: 57394 57394 50
Width: 800
VWidth: 0
InSpiro: 1
Flags: HW
LayerCount: 2
Fore
SplineSet
572.032226562 101.375976562 m 1
 606.848632812 70.65625 l 1
 787.072265625 250.879882812 l 1
 735.872070312 310.272460938 l 1
 572.032226562 101.375976562 l 1
  Spiro
    606.848 70.656 v
    787.072 250.88 v
    735.872 310.272 v
    572.032 101.376 v
    0 0 z
  EndSpiro
3.7119140625 67.583984375 m 1
 102.016601562 21.50390625 l 1
 131.770507812 82.130859375 176.265625 135.59765625 231.040039062 175.103515625 c 0
 301.501953125 225.924804688 390.95703125 252.978515625 476.799804688 239.616210938 c 0
 528.400390625 231.583984375 577.7890625 208.991210938 616.9296875 174.420898438 c 0
 656.0703125 139.849609375 684.704101562 93.5126953125 697.984375 43.0078125 c 1
 796.288085938 98.3037109375 l 1
 741.5546875 190.924804688 650.618164062 261.3125 547.456054688 291.83984375 c 0
 435.263671875 325.040039062 310.763671875 311.06640625 206.463867188 258.047851562 c 0
 122.693359375 215.46484375 51.5966796875 148.442382812 3.7119140625 67.583984375 c 1
  Spiro
    3.712 67.584 v
    102.016 21.504 v
    231.04 175.104 o
    476.8 239.616 o
    697.984 43.008 v
    796.288 98.304 v
    547.456 291.84 o
    206.464 258.048 o
    0 0 z
  EndSpiro
3.7119140625 95.232421875 m 1048
  Spiro
    3.712 95.232 {
    0 0 z
  EndSpiro
EndSplineSet
Validated: 524325
EndChar

StartChar: uniE033
Encoding: 57395 57395 51
Width: 800
VWidth: 0
Flags: HW
LayerCount: 2
Fore
SplineSet
346 467 m 5
 294 510 l 1
 466 734 l 1
 537 670 l 1
 346 467 l 5
285 17 m 1
 263 70 l 1
 340 112 398 185 423 269 c 0
 440 327 442 390 432 449 c 0
 422 508 400 565 370 617 c 0
 345 660 315 701 280 737 c 1
 341 803 l 1
 378 745 410 684 437 621 c 0
 461 563 481 502 490 439 c 0
 499 376 498 312 481 251 c 0
 453 150 381 60 285 17 c 1
EndSplineSet
Validated: 37
EndChar

StartChar: uniE034
Encoding: 57396 57396 52
Width: 800
VWidth: 0
InSpiro: 1
Flags: HW
LayerCount: 2
Fore
SplineSet
395.12109375 242.688476562 m 1
 616.3046875 427.0078125 l 1
 659.3125 405.50390625 l 1
 431.985351562 199.6796875 l 1
 395.12109375 242.688476562 l 1
  Spiro
    395.121 242.688 v
    616.305 427.008 v
    659.313 405.504 v
    431.985 199.68 v
    0 0 z
  EndSpiro
430.9609375 764.927734375 m 1
 486.256835938 724.9921875 l 1
 388.275390625 637.149414062 299.373046875 535.28515625 246.640625 414.719726562 c 0
 219.661132812 353.033203125 203.973632812 284.385742188 215.487304688 218.048828125 c 0
 221.244140625 184.880859375 233.958984375 152.733398438 253.950195312 125.646484375 c 0
 273.94140625 98.560546875 301.293945312 76.74609375 332.657226562 64.51171875 c 0
 374.055664062 48.3623046875 422.186523438 49.7978515625 462.096679688 69.3388671875 c 0
 502.006835938 88.8798828125 532.810546875 126.122070312 544.625 168.959960938 c 0
 553.875976562 202.504882812 551.663085938 239.086914062 538.518554688 271.305664062 c 0
 525.373046875 303.524414062 501.380859375 331.19921875 471.374023438 348.819335938 c 0
 441.3671875 366.439453125 405.521484375 373.908203125 370.97265625 369.754882812 c 0
 336.423828125 365.6015625 303.372070312 349.849609375 278.384765625 325.631835938 c 1
 268.14453125 384 l 1
 305.994140625 407.29296875 351.384765625 418.10546875 395.669921875 414.375976562 c 0
 439.955078125 410.646484375 482.899414062 392.39453125 516.314453125 363.092773438 c 0
 549.728515625 333.791015625 573.434570312 293.59375 582.884765625 250.16796875 c 0
 592.3359375 206.7421875 587.477539062 160.318359375 569.201171875 119.807617188 c 0
 543.5859375 63.03125 491.1953125 19.083984375 430.862304688 3.6025390625 c 0
 370.530273438 -11.8798828125 303.954101562 1.3466796875 252.78515625 36.8642578125 c 0
 199.302734375 73.9873046875 163.442382812 133.548828125 148.9765625 197.025390625 c 0
 134.510742188 260.501953125 139.999023438 327.451171875 157.552734375 390.143554688 c 0
 199.974609375 541.651367188 304.573242188 671.225585938 430.9609375 764.927734375 c 1
  Spiro
    430.961 764.928 v
    486.257 724.992 v
    246.641 414.72 o
    332.657 64.512 o
    544.625 168.96 o
    278.385 325.632 v
    268.145 384 v
    569.201 119.808 o
    252.785 36.864 o
    157.553 390.144 o
    0 0 z
  EndSpiro
EndSplineSet
Validated: 524325
EndChar

StartChar: uniE035
Encoding: 57397 57397 53
Width: 800
VWidth: 0
InSpiro: 1
Flags: HW
LayerCount: 2
Fore
SplineSet
317.056640625 109.568359375 m 1
 639.615234375 462.84765625 l 1
 691.83984375 407.551757812 l 1
 415.359375 51.2001953125 l 1
 317.056640625 109.568359375 l 1
  Spiro
    317.056 109.568 v
    639.616 462.848 v
    691.84 407.552 v
    415.36 51.2 v
    0 0 z
  EndSpiro
89.728515625 58.3681640625 m 1
 356.9921875 780.288085938 l 1
 710.271484375 30.7197265625 l 1
 587.392578125 15.3603515625 l 1
 360.064453125 642.047851562 l 1
 234.111328125 0 l 1
 89.728515625 58.3681640625 l 1
  Spiro
    89.728 58.368 v
    356.992 780.288 v
    710.272 30.72 v
    587.392 15.36 v
    360.064 642.048 v
    234.112 0 v
    0 0 z
  EndSpiro
EndSplineSet
Validated: 524293
EndChar

StartChar: uniE036
Encoding: 57398 57398 54
Width: 800
VWidth: 0
InSpiro: 1
Flags: HW
LayerCount: 2
Fore
SplineSet
330.3671875 210.944335938 m 1
 674.431640625 505.856445312 l 1
 735.87109375 464.896484375 l 1
 382.591796875 155.6484375 l 1
 330.3671875 210.944335938 l 1
  Spiro
    330.368 210.944 v
    674.432 505.856 v
    735.872 464.896 v
    382.592 155.648 v
    0 0 z
  EndSpiro
64.12890625 801.791992188 m 1
 595.583984375 814.080078125 l 1
 584.693359375 621.727539062 564.1796875 429.920898438 534.14453125 239.616210938 c 0
 521.4921875 159.454101562 507.15234375 79.55859375 491.13671875 0 c 1
 423.552734375 18.431640625 l 1
 459.708984375 164.83203125 485.39453125 313.81640625 500.3515625 463.872070312 c 0
 509.408203125 554.729492188 514.53515625 645.979492188 515.712890625 737.280273438 c 1
 88.703125 712.704101562 l 1
 64.12890625 801.791992188 l 1
  Spiro
    64.128 801.792 v
    595.584 814.08 v
    534.144 239.616 o
    491.136 0 v
    423.552 18.432 v
    500.352 463.872 o
    515.712 737.28 v
    88.704 712.704 v
    0 0 z
  EndSpiro
EndSplineSet
Validated: 524293
EndChar

StartChar: uniE037
Encoding: 57399 57399 55
Width: 800
VWidth: 0
Flags: HW
LayerCount: 2
Fore
SplineSet
295.915039062 158 m 1
 569.915039062 376 l 1
 618.915039062 345 l 1
 329.915039062 109 l 1
 295.915039062 158 l 1
82.9150390625 648 m 1
 115.915039062 664 152.915039062 673 188.915039062 673 c 0
 224.915039062 673 260.915039062 665 294.915039062 651 c 0
 350.915039062 628 399.915039062 590 456.915039062 567 c 0
 484.915039062 556 516.915039062 549 546.915039062 552 c 0
 576.915039062 555 606.915039062 567 626.915039062 590 c 0
 640.915039062 606 649.915039062 626 651.915039062 647 c 0
 653.915039062 668 648.915039062 689 636.915039062 707 c 0
 624.915039062 725 607.915039062 738 587.915039062 744 c 0
 567.915039062 750 545.915039062 750 525.915039062 743 c 0
 493.915039062 732 466.915039062 707 452.915039062 676 c 0
 438.915039062 645 434.915039062 612 436.915039062 578 c 0
 441.915039062 479 486.915039062 385 499.915039062 287 c 0
 512.915039062 189 495.915039062 85 445.915039062 0 c 1
 383.915039062 0 l 1
 408.915039062 50 424.915039062 105 429.915039062 161 c 0
 434.915039062 217 428.915039062 274 417.915039062 329 c 0
 403.915039062 397 382.915039062 462 373.915039062 531 c 0
 368.915039062 565 367.915039062 601 372.915039062 635 c 0
 377.915039062 669 389.915039062 702 408.915039062 731 c 0
 426.915039062 758 450.915039062 781 478.915039062 796 c 0
 506.915039062 811 539.915039062 818 571.915039062 817 c 0
 602.915039062 816 633.915039062 806 658.915039062 788 c 0
 683.915039062 770 704.915039062 743 714.915039062 714 c 0
 724.915039062 685 725.915039062 652 716.915039062 622 c 0
 707.915039062 592 688.915039062 566 663.915039062 547 c 0
 637.915039062 527 606.915039062 515 573.915039062 511 c 0
 540.915039062 507 507.915039062 510 475.915039062 516 c 0
 411.915039062 529 349.915039062 554 285.915039062 568 c 0
 216.915039062 583 143.915039062 582 76.9150390625 562 c 1
 82.9150390625 648 l 1
EndSplineSet
Validated: 524325
EndChar

StartChar: uniE038
Encoding: 57400 57400 56
Width: 800
VWidth: 0
Flags: HW
LayerCount: 2
Fore
SplineSet
280.5 232 m 1
 215.5 279 l 5
 513.5 441 l 1
 572.5 417 l 1
 280.5 232 l 1
258.5 94 m 1
 527.5 282 l 1
 584.5 254 l 1
 322.5 63 l 1
 258.5 94 l 1
518.5 807 m 1
 568.5 733 l 1
 339.5 610 428.5 197 551.5 66 c 1
 490.5 0 l 1
 330.5 152 272.5 696 518.5 807 c 1
EndSplineSet
Validated: 524325
EndChar

StartChar: uniE039
Encoding: 57401 57401 57
Width: 800
VWidth: 0
Flags: HW
LayerCount: 2
Fore
SplineSet
320.512695312 547 m 1
 249.512695312 553 l 1
 495.512695312 756 l 1
 581.512695312 762 l 1
 320.512695312 547 l 1
631.512695312 645 m 1
 572.512695312 580 505.512695312 523 436.512695312 470 c 0
 401.512695312 443 366.512695312 417 334.512695312 388 c 0
 302.512695312 359 271.512695312 326 253.512695312 286 c 0
 237.512695312 252 231.512695312 212 243.512695312 177 c 0
 249.512695312 159 260.512695312 143 274.512695312 131 c 0
 288.512695312 119 306.512695312 111 324.512695312 108 c 0
 350.512695312 104 377.512695312 112 398.512695312 127 c 0
 419.512695312 142 434.512695312 165 443.512695312 189 c 0
 461.512695312 238 458.512695312 292 453.512695312 344 c 0
 450.512695312 372 448.512695312 399 444.512695312 427 c 0
 428.512695312 549 401.512695312 669 357.512695312 784 c 1
 433.512695312 797 l 1
 454.512695312 699 476.512695312 601 492.512695312 502 c 0
 502.512695312 444 509.512695312 386 511.512695312 328 c 0
 513.512695312 270 509.512695312 210 489.512695312 155 c 0
 472.512695312 109 443.512695312 64 401.512695312 38 c 0
 380.512695312 25 357.512695312 17 332.512695312 14 c 0
 307.512695312 11 282.512695312 15 259.512695312 25 c 0
 231.512695312 37 208.512695312 57 192.512695312 83 c 0
 176.512695312 109 168.512695312 139 168.512695312 169 c 0
 167.512695312 229 196.512695312 287 232.512695312 335 c 0
 323.512695312 456 448.512695312 544 560.512695312 645 c 1
 631.512695312 645 l 1
EndSplineSet
Validated: 524325
EndChar

StartChar: uniE03A
Encoding: 57402 57402 58
Width: 800
VWidth: 0
InSpiro: 1
Flags: HW
LayerCount: 2
Fore
SplineSet
271.205078125 108.543945312 m 0
 544.612304688 281.599609375 l 0
 575.333007812 235.51953125 l 0
 277.348632812 59.3916015625 l 0
 271.205078125 108.543945312 l 0
  Spiro
    271.204 108.544 ]
    544.612 281.6 ]
    575.332 235.52 ]
    277.348 59.392 ]
    0 0 z
  EndSpiro
249.701171875 216.064453125 m 1
 510.8203125 394.240234375 l 1
 532.325195312 348.16015625 l 1
 265.060546875 173.055664062 l 1
 249.701171875 216.064453125 l 1
  Spiro
    249.7 216.064 v
    510.82 394.24 v
    532.324 348.16 v
    265.06 173.056 v
    0 0 z
  EndSpiro
495.4609375 794.624023438 m 1
 480.100585938 741.375976562 l 1
 461.940429688 755.055664062 440.102539062 763.803710938 417.51953125 766.4453125 c 0
 394.9375 769.086914062 371.669921875 765.616210938 350.842773438 756.497070312 c 0
 330.014648438 747.37890625 311.681640625 732.63671875 298.3046875 714.251953125 c 0
 284.928710938 695.8671875 276.543945312 673.88671875 274.276367188 651.263671875 c 0
 270.009765625 608.68359375 288.59765625 564.484375 322.013671875 537.751953125 c 0
 355.430664062 511.018554688 402.630859375 502.5859375 443.236328125 516.095703125 c 1
 446.30859375 0 l 1
 366.436523438 0 l 1
 412.516601562 452.608398438 l 1
 361.666992188 451.098632812 310.552734375 472.0234375 275.357421875 508.756835938 c 0
 240.163085938 545.490234375 221.442382812 597.453125 225.125 648.192382812 c 0
 227.330078125 678.581054688 237.299804688 708.374023438 253.829101562 733.969726562 c 0
 270.358398438 759.564453125 293.412109375 780.908203125 320.203125 795.419921875 c 0
 346.993164062 809.931640625 377.465820312 817.581054688 407.93359375 817.442382812 c 0
 438.401367188 817.303710938 468.802734375 809.37890625 495.4609375 794.624023438 c 1
  Spiro
    495.46 794.624 v
    480.1 741.376 v
    274.276 651.264 o
    443.236 516.096 v
    446.308 0 v
    366.436 0 v
    412.516 452.608 v
    225.124 648.192 o
    0 0 z
  EndSpiro
EndSplineSet
Validated: 524325
EndChar

StartChar: uniE03B
Encoding: 57403 57403 59
Width: 800
VWidth: 0
Flags: HW
LayerCount: 2
Fore
SplineSet
369.69140625 334 m 1
 705.69140625 594 l 1
 769.69140625 569 l 5
 431.69140625 317 l 1
 369.69140625 334 l 1
225.69140625 413 m 1
 560.69140625 662 l 1
 631.69140625 637 l 1
 305.69140625 388 l 1
 225.69140625 413 l 1
286.69140625 579 m 0
 327.69140625 581 369.69140625 573 407.69140625 556 c 0
 445.69140625 539 478.69140625 514 504.69140625 482 c 0
 557.69140625 418 580.69140625 332 569.69140625 250 c 0
 561.69140625 187 534.69140625 127 490.69140625 81 c 0
 446.69140625 35 386.69140625 6 323.69140625 0 c 0
 282.69140625 -4 241.69140625 2 203.69140625 18 c 0
 165.69140625 34 131.69140625 58 104.69140625 89 c 0
 50.69140625 150 23.69140625 235 31.69140625 317 c 0
 37.69140625 383 65.69140625 447 111.69140625 495 c 0
 157.69140625 543 220.69140625 575 286.69140625 579 c 0
280.69140625 508 m 0
 237.69140625 502 196.69140625 481 165.69140625 451 c 0
 134.69140625 421 111.69140625 382 102.69140625 339 c 0
 88.69140625 275 103.69140625 206 142.69140625 154 c 0
 162.69140625 128 187.69140625 106 216.69140625 92 c 0
 245.69140625 78 278.69140625 71 311.69140625 72 c 0
 358.69140625 73 404.69140625 92 440.69140625 123 c 0
 476.69140625 154 501.69140625 198 511.69140625 244 c 0
 526.69140625 311 508.69140625 384 464.69140625 436 c 0
 442.69140625 462 413.69140625 483 381.69140625 496 c 0
 349.69140625 509 314.69140625 513 280.69140625 508 c 0
EndSplineSet
Validated: 524325
EndChar

StartChar: uniE03C
Encoding: 57404 57404 60
Width: 800
VWidth: 0
Flags: HW
LayerCount: 2
Fore
SplineSet
197.053710938 161 m 5
 277.053710938 164 l 1
 685.053710938 523 l 1
 618.053710938 517 l 5
 197.053710938 161 l 5
205.053710938 308 m 1
 282.053710938 305 l 1
 684.053710938 643 l 1
 600.053710938 646 l 1
 205.053710938 308 l 1
132.053710938 584 m 1
 178.053710938 571 l 1
 164.053710938 602 166.053710938 639 181.053710938 669 c 0
 196.053710938 699 225.053710938 721 258.053710938 728 c 0
 277.053710938 732 298.053710938 732 317.053710938 727 c 0
 336.053710938 722 354.053710938 712 369.053710938 700 c 0
 399.053710938 675 418.053710938 639 427.053710938 601 c 0
 436.053710938 563 435.053710938 522 429.053710938 483 c 0
 423.053710938 444 413.053710938 407 403.053710938 369 c 0
 387.053710938 309 371.053710938 248 366.053710938 186 c 0
 361.053710938 124 364.053710938 61 378.053710938 0 c 1
 424.053710938 0 l 1
 427.053710938 104 442.053710938 207 461.053710938 310 c 0
 480.053710938 412 503.053710938 516 482.053710938 618 c 0
 472.053710938 669 449.053710938 718 413.053710938 755 c 0
 377.053710938 792 326.053710938 815 274.053710938 814 c 0
 247.053710938 813 220.053710938 806 196.053710938 793 c 0
 172.053710938 780 152.053710938 761 138.053710938 738 c 0
 124.053710938 715 116.053710938 689 115.053710938 662 c 0
 114.053710938 635 120.053710938 608 132.053710938 584 c 1
EndSplineSet
Validated: 524325
EndChar

StartChar: uniE03D
Encoding: 57405 57405 61
Width: 800
VWidth: 0
Flags: HW
LayerCount: 2
Fore
SplineSet
245 145 m 5
 656 493 l 5
 540 480 l 5
 144 152 l 5
 245 145 l 5
245 325 m 1
 656 672 l 1
 540 659 l 1
 144 331 l 1
 245 325 l 1
347 812 m 25
 344 0 l 25
 461 0 l 25
 409 812 l 25
 347 812 l 25
EndSplineSet
Validated: 5
EndChar

StartChar: uniE03E
Encoding: 57406 57406 62
Width: 800
VWidth: 0
InSpiro: 1
Flags: HW
LayerCount: 2
Fore
SplineSet
168.986328125 308.223632812 m 1
 408.602539062 563.200195312 l 1
 439.322265625 517.120117188 l 1
 202.778320312 262.143554688 l 1
 168.986328125 308.223632812 l 1
  Spiro
    168.987 308.224 v
    408.603 563.2 v
    439.323 517.12 v
    202.779 262.144 v
    0 0 z
  EndSpiro
224.282226562 123.904296875 m 1
 190.490234375 163.83984375 l 1
 439.322265625 421.887695312 l 1
 486.426757812 378.879882812 l 1
 224.282226562 123.904296875 l 1
  Spiro
    224.283 123.904 v
    190.491 163.84 v
    439.323 421.888 v
    486.427 378.88 v
    0 0 z
  EndSpiro
613.40234375 583.6796875 m 1
 567.322265625 571.391601562 l 1
 581.323242188 601.953125 580.422851562 638.913085938 565.041992188 668.803710938 c 0
 549.661132812 698.694335938 520.270507812 720.79296875 487.450195312 728.064453125 c 0
 468.28125 732.310546875 448.106445312 731.725585938 429.11328125 726.748046875 c 0
 410.122070312 721.771484375 392.338867188 712.448242188 377.102539062 700.064453125 c 0
 346.631835938 675.293945312 327.037109375 638.778320312 318.262695312 600.501953125 c 0
 309.48828125 562.225585938 310.838867188 522.2265625 316.755859375 483.407226562 c 0
 322.672851562 444.586914062 332.9765625 406.58984375 343.06640625 368.639648438 c 0
 359.06640625 308.458984375 374.043945312 247.708007812 379.521484375 185.677734375 c 0
 385 123.6484375 381.340820312 60.74609375 367.642578125 0 c 1
 321.5625 0 l 1
 319.057617188 104.249023438 303.859375 207.768554688 284.698242188 310.272460938 c 0
 265.654296875 412.149414062 242.651367188 516.908203125 263.501953125 618.4296875 c 0
 273.926757812 669.192382812 296.388671875 718.321289062 332.854492188 755.140625 c 0
 369.319335938 791.959960938 420.282226562 815.247070312 472.090820312 814.080078125 c 0
 499.041992188 813.47265625 525.866210938 806.389648438 549.422851562 793.28125 c 0
 572.977539062 780.171875 593.18359375 761.053710938 607.412109375 738.158203125 c 0
 621.639648438 715.260742188 629.840820312 688.64453125 630.896484375 661.708984375 c 0
 631.953125 634.772460938 625.860351562 607.5859375 613.40234375 583.6796875 c 1
  Spiro
    613.403 583.68 v
    567.323 571.392 v
    487.451 728.064 o
    343.067 368.64 o
    367.643 0 v
    321.563 0 v
    284.699 310.272 o
    472.091 814.08 o
    0 0 z
  EndSpiro
EndSplineSet
Validated: 524325
EndChar

StartChar: uniE03F
Encoding: 57407 57407 63
Width: 800
VWidth: 0
Flags: HW
LayerCount: 2
Fore
SplineSet
142.5 96 m 29
 179.5 61 l 25
 355.5 342 l 25
 322.5 352 l 25
 142.5 96 l 29
58.5 138 m 1
 93.5 103 l 1
 279.5 378 l 1
 226.5 413 l 1
 58.5 138 l 1
803.5 309 m 1
 730.5 358 l 1
 607.5 129 193.5 219 62.5 342 c 1
 -3.5 281 l 1
 148.5 121 692.5 63 803.5 309 c 1
EndSplineSet
Validated: 524325
EndChar

StartChar: uniE040
Encoding: 57408 57408 64
Width: 800
VWidth: 0
Flags: HW
LayerCount: 2
Fore
SplineSet
500.5 162 m 5
 529.5 139 l 29
 668.5 352 l 1
 604.5 383 l 25
 500.5 162 l 5
572.5 101 m 1
 598.5 84 l 1
 787.5 251 l 1
 736.5 310 l 1
 572.5 101 l 1
3.5 68 m 1
 102.5 22 l 1
 132.5 83 176.5 135 231.5 175 c 0
 301.5 226 390.5 253 476.5 240 c 0
 528.5 232 578.5 209 617.5 174 c 0
 656.5 139 685.5 94 698.5 43 c 1
 796.5 98 l 1
 741.5 191 650.5 261 547.5 292 c 0
 435.5 325 310.5 311 206.5 258 c 0
 122.5 215 51.5 149 3.5 68 c 1
3.5 95 m 1048
EndSplineSet
Validated: 524325
EndChar

StartChar: uniE041
Encoding: 57409 57409 65
Width: 800
VWidth: 0
Flags: HW
LayerCount: 2
Fore
SplineSet
317 378 m 1
 549 568 l 1
 573 485 l 1
 328 341 l 1
 317 378 l 1
285 467 m 5
 258 510 l 1
 469 746 l 1
 518 664 l 1
 285 467 l 5
249 17 m 1
 227 70 l 1
 304 112 362 185 387 269 c 0
 404 327 406 390 396 449 c 0
 386 508 364 565 334 617 c 0
 309 660 279 701 244 737 c 1
 305 803 l 1
 342 745 374 684 401 621 c 0
 425 563 445 502 454 439 c 0
 463 376 462 312 445 251 c 0
 417 150 345 60 249 17 c 1
EndSplineSet
Validated: 37
EndChar

StartChar: uniE042
Encoding: 57410 57410 66
Width: 800
VWidth: 0
Flags: HW
LayerCount: 2
Fore
SplineSet
408.533203125 190 m 1
 632.533203125 399 l 1
 688.533203125 362 l 5
 454.533203125 166 l 1
 408.533203125 190 l 1
333.533203125 261 m 1
 519.533203125 485 l 1
 583.533203125 442 l 1
 379.533203125 230 l 1
 333.533203125 261 l 1
401.533203125 765 m 1
 456.533203125 725 l 1
 358.533203125 637 270.533203125 536 217.533203125 415 c 0
 190.533203125 353 174.533203125 284 186.533203125 218 c 0
 192.533203125 185 204.533203125 153 224.533203125 126 c 0
 244.533203125 99 272.533203125 77 303.533203125 65 c 0
 344.533203125 49 392.533203125 49 432.533203125 69 c 0
 472.533203125 89 503.533203125 126 515.533203125 169 c 0
 524.533203125 203 522.533203125 239 509.533203125 271 c 0
 496.533203125 303 471.533203125 331 441.533203125 349 c 0
 411.533203125 367 376.533203125 374 341.533203125 370 c 0
 306.533203125 366 273.533203125 350 248.533203125 326 c 1
 238.533203125 384 l 1
 276.533203125 407 322.533203125 418 366.533203125 414 c 0
 410.533203125 410 453.533203125 392 486.533203125 363 c 0
 519.533203125 334 544.533203125 293 553.533203125 250 c 0
 562.533203125 207 557.533203125 161 539.533203125 120 c 0
 513.533203125 63 461.533203125 19 401.533203125 4 c 0
 341.533203125 -11 274.533203125 1 223.533203125 37 c 0
 170.533203125 74 133.533203125 134 119.533203125 197 c 0
 105.533203125 260 110.533203125 327 128.533203125 390 c 0
 170.533203125 542 275.533203125 671 401.533203125 765 c 1
EndSplineSet
Validated: 524325
EndChar

StartChar: uniE043
Encoding: 57411 57411 67
Width: 800
VWidth: 0
Flags: HW
LayerCount: 2
Fore
SplineSet
406.5 272 m 1
 366.5 371 l 1
 553.5 620 l 1
 615.5 552 l 5
 406.5 272 l 1
387.5 116 m 1
 630.5 414 l 1
 704.5 340 l 1
 470.5 30 l 1
 387.5 116 l 1
89.5 58 m 1
 357.5 780 l 1
 710.5 31 l 1
 587.5 15 l 1
 360.5 642 l 1
 234.5 0 l 1
 89.5 58 l 1
EndSplineSet
Validated: 524293
EndChar

StartChar: uniE044
Encoding: 57412 57412 68
Width: 800
VWidth: 0
InSpiro: 1
Flags: HW
LayerCount: 2
Fore
SplineSet
304.767578125 403.456054688 m 1
 682.623046875 704.51171875 l 1
 731.775390625 659.456054688 l 1
 353.919921875 348.16015625 l 1
 304.767578125 403.456054688 l 1
  Spiro
    304.768 403.456 v
    682.624 704.512 v
    731.776 659.456 v
    353.92 348.16 v
    0 0 z
  EndSpiro
330.3671875 210.944335938 m 1
 674.431640625 505.856445312 l 1
 735.87109375 464.896484375 l 1
 382.591796875 155.6484375 l 1
 330.3671875 210.944335938 l 1
  Spiro
    330.368 210.944 v
    674.432 505.856 v
    735.872 464.896 v
    382.592 155.648 v
    0 0 z
  EndSpiro
64.12890625 801.791992188 m 1
 595.583984375 814.080078125 l 1
 584.693359375 621.727539062 564.1796875 429.920898438 534.14453125 239.616210938 c 0
 521.4921875 159.454101562 507.15234375 79.55859375 491.13671875 0 c 1
 423.552734375 18.431640625 l 1
 459.708984375 164.83203125 485.39453125 313.81640625 500.3515625 463.872070312 c 0
 509.408203125 554.729492188 514.53515625 645.979492188 515.712890625 737.280273438 c 1
 88.703125 712.704101562 l 1
 64.12890625 801.791992188 l 1
  Spiro
    64.128 801.792 v
    595.584 814.08 v
    534.144 239.616 o
    491.136 0 v
    423.552 18.432 v
    500.352 463.872 o
    515.712 737.28 v
    88.704 712.704 v
    0 0 z
  EndSpiro
EndSplineSet
Validated: 524293
EndChar

StartChar: uniE045
Encoding: 57413 57413 69
Width: 800
VWidth: 0
InSpiro: 1
Flags: HW
LayerCount: 2
Fore
SplineSet
326.750976562 249.856445312 m 1
 286.814453125 292.864257812 l 1
 547.934570312 480.255859375 l 1
 606.302734375 455.6796875 l 1
 326.750976562 249.856445312 l 1
  Spiro
    286.815 292.864 v
    547.935 480.256 v
    606.303 455.68 v
    326.751 249.856 v
    0 0 z
  EndSpiro
296.03125 157.696289062 m 1
 569.438476562 375.807617188 l 1
 618.590820312 345.087890625 l 1
 329.823242188 108.543945312 l 1
 296.03125 157.696289062 l 1
  Spiro
    296.031 157.696 v
    569.439 375.808 v
    618.591 345.088 v
    329.823 108.544 v
    0 0 z
  EndSpiro
83.0390625 648.192382812 m 1
 115.602539062 664.627929688 152.060546875 673.1875 188.537109375 673.30078125 c 0
 225.014648438 673.413085938 261.223632812 665.021484375 295.006835938 651.263671875 c 0
 351.405273438 628.296875 400.536132812 589.93359375 457.064453125 567.290039062 c 0
 485.329101562 555.967773438 515.869140625 548.997070312 546.204101562 551.6171875 c 0
 576.5390625 554.23828125 606.479492188 567.133789062 626.783203125 589.82421875 c 0
 640.815429688 605.506835938 649.965820312 625.620117188 651.926757812 646.573242188 c 0
 653.888671875 667.526367188 648.572265625 689.1171875 636.952148438 706.663085938 c 0
 625.33203125 724.208984375 607.538085938 737.524414062 587.502929688 743.96484375 c 0
 567.46875 750.404296875 545.403320312 749.984375 525.407226562 743.423828125 c 0
 493.310546875 732.89453125 467.569335938 706.958007812 453.111328125 676.428710938 c 0
 438.653320312 645.899414062 434.584960938 611.271484375 436.319335938 577.536132812 c 0
 441.413085938 478.439453125 486.3125 385.447265625 499.27734375 287.0703125 c 0
 512.2421875 188.692382812 495.978515625 85.44921875 445.53515625 0 c 1
 384.094726562 0 l 1
 409.026367188 50.3017578125 424.219726562 105.338867188 429.225585938 161.255859375 c 0
 434.23046875 217.172851562 428.84765625 273.643554688 417.88671875 328.704101562 c 0
 404.380859375 396.549804688 382.357421875 462.70703125 373.201171875 531.275390625 c 0
 368.623046875 565.55859375 367.483398438 600.4921875 372.67578125 634.688476562 c 0
 377.868164062 668.884765625 389.5625 702.3046875 408.670898438 731.135742188 c 0
 426.40625 757.89453125 450.512695312 780.52734375 478.786132812 795.733398438 c 0
 507.05859375 810.939453125 539.418945312 818.633789062 571.487304688 817.15234375 c 0
 602.66015625 815.711914062 633.482421875 805.537109375 658.96875 787.530273438 c 0
 684.455078125 769.522460938 704.416015625 743.66015625 714.80859375 714.235351562 c 0
 725.201171875 684.810546875 725.860351562 652.03515625 716.61328125 622.23046875 c 0
 707.366210938 592.42578125 688.342773438 565.892578125 663.646484375 546.81640625 c 0
 637.680664062 526.758789062 605.836914062 514.982421875 573.3046875 510.716796875 c 0
 540.772460938 506.452148438 507.62109375 509.411132812 475.458984375 515.904296875 c 0
 411.135742188 528.891601562 349.991210938 554.737304688 285.791015625 568.3203125 c 0
 216.883789062 582.8984375 144.286132812 582.649414062 76.89453125 562.17578125 c 1
 83.0390625 648.192382812 l 1
  Spiro
    83.0393 648.192 v
    295.007 651.264 o
    626.783 589.824 o
    525.407 743.424 o
    436.319 577.536 o
    445.535 0 v
    384.095 0 v
    417.887 328.704 o
    408.671 731.136 o
    571.487 817.152 o
    663.647 546.816 o
    285.791 568.32 o
    76.8953 562.176 v
    0 0 z
  EndSpiro
EndSplineSet
Validated: 524325
EndChar
